<?xml version="1.0" encoding="utf-8"?>
<!-- Generator: Adobe Illustrator 16.0.0, SVG Export Plug-In . SVG Version: 6.00 Build 0)  -->
<!DOCTYPE svg PUBLIC "-//W3C//DTD SVG 1.1//EN" "http://www.w3.org/Graphics/SVG/1.1/DTD/svg11.dtd">
<svg version="1.1" id="Layer_1" xmlns="http://www.w3.org/2000/svg" xmlns:xlink="http://www.w3.org/1999/xlink" x="0px" y="0px"
 xml:space="preserve" width="100%" height="100vh">
<g>
	<defs>
		<rect id="SVGID_1_" width="2080" height="180"/>
	</defs>
	<clipPath id="SVGID_2_">
		<use xlink:href="#SVGID_1_"  overflow="visible"/>
	</clipPath>
	<path clip-path="url(#SVGID_2_)" d="M358.891,547.693c-25.758-96.395,31.504-195.419,127.899-221.178
		c96.396-25.758,195.42,31.504,221.179,127.899"/>
	<path clip-path="url(#SVGID_2_)" d="M174.273,800.695h189.956c0,0,98.236-96.118,41.099-150.75
		c-57.137-54.631-91.721,51.624-91.721,51.624s14.536-127.807-69.667-103.749c-84.202,24.058-20.048,133.191-20.048,133.191
		s-69.166-71.042-106.756-37.963C79.545,726.129,168.76,800.695,174.273,800.695"/>
	<path clip-path="url(#SVGID_2_)" d="M991.974,258.637c0,0,6.325,32.279-4.406,55.76c-5.506,12.048-17.438,19.908-30.656,20.802
		c-36.972,2.5-156.487,18.963-126.989,127.399c2.713,9.972,8.274,18.941,16.146,25.638c15.877,13.509,45.596,28.45,77.689-8.156
		c0,0,35.571-46.899,85.069-46.259c3.782,0.048,7.549-0.387,11.182-1.44c16.764-4.862,59.991-21.804,59.991-67.229V258.637H991.974z
		"/>
	<path clip-path="url(#SVGID_2_)" d="M1077.051,518.917v177.976c0,0-108.964,12.972-108.964-88.987
		C968.087,505.945,1077.051,518.917,1077.051,518.917"/>
	<path clip-path="url(#SVGID_2_)" d="M600.201,258.637h244.911c0,0-25.425,48.578-122.455,48.578S600.201,258.637,600.201,258.637"
		/>
	<path clip-path="url(#SVGID_2_)" d="M312.398,332.86L312.398,332.86c-18.995-21.385-49.567-27.771-73.98-15.163
		C161.961,357.182,63.34,339.613,1.27,269.729L0,270.856v148.869c92.983,51.532,205.201,55.067,297.561,7.417
		C331.986,409.381,339.175,363.009,312.398,332.86"/>
	<path clip-path="url(#SVGID_2_)" d="M664.047,800.695c-19.557-16.906-31.969-41.865-31.969-69.685
		c0-50.798,41.326-92.124,92.124-92.124s92.124,41.326,92.124,92.124c0,27.819-12.412,52.778-31.968,69.685h99.144
		c9.374-21.347,14.591-44.916,14.591-69.685c0-95.883-78.008-173.891-173.891-173.891c-95.884,0-173.891,78.008-173.891,173.891
		c0,24.769,5.216,48.338,14.591,69.685H664.047z"/>
	<path clip-path="url(#SVGID_2_)" d="M48.287,478.534c-17.888,0-34.505,5.441-48.287,14.757v143.151
		c13.782,9.316,30.399,14.757,48.287,14.757c47.68,0,86.333-38.652,86.333-86.331C134.62,517.186,95.967,478.534,48.287,478.534"/>
</g>
</svg>
