<svg id="Layer_1" data-name="Layer 1" xmlns="http://www.w3.org/2000/svg" xmlns:xlink="http://www.w3.org/1999/xlink" viewBox="0 0 304 304"><defs><style>.cls-1{fill:none;}.cls-2{clip-path:url(#clip-path);}.cls-3{clip-path:url(#clip-path-2);}.cls-4{fill:#f5c471;}.cls-5{fill:#fcf4ea;}.cls-6{clip-path:url(#clip-path-3);}.cls-7{clip-path:url(#clip-path-4);}.cls-8{fill:#67c7c1;}.cls-9{fill:#f07973;}.cls-10{fill:#faca78;}.cls-11{clip-path:url(#clip-path-7);}.cls-12{fill:#ffdea6;}.cls-13{fill:#dddadd;}</style><clipPath id="clip-path"><circle class="cls-1" cx="-190.58" cy="152" r="152"/></clipPath><clipPath id="clip-path-2"><path class="cls-1" d="M-49.24,222.15l-273.62,52.28a10.4,10.4,0,0,0-8.51,12.14,10.79,10.79,0,0,0,12.76,8.06l138.5-26.49c-8.95,7.44-9.84,27.38-9.66,37.13a6,6,0,0,0,6.29,5.67l47.4,1.77a5.88,5.88,0,0,0,5.5-8.06c-5-11.7-24.1-35.36-37.13-38.9L-45,242.27a10.43,10.43,0,0,0,8.6-8.78v-2.65c0-.27-.09-.45-.09-.71a10.75,10.75,0,0,0-10.63-8.24h0l-2.13.26"/></clipPath><clipPath id="clip-path-3"><circle class="cls-1" cx="152" cy="152" r="152"/></clipPath><clipPath id="clip-path-4"><rect class="cls-1" x="-63.9" y="62.2" width="456.9" height="191.1"/></clipPath><clipPath id="clip-path-7"><path class="cls-1" d="M60.1,90.6V231.7s0,8,8.5,8H254V99.3s0-8.7-9.2-8.7Z"/></clipPath></defs><title>Artboard 1 copy 8</title><g class="cls-2"><g class="cls-3"><path class="cls-4" d="M-60.67,292.77,2.15,276.91l-28-100.3-39.43,76.47a35.85,35.85,0,0,0,4.61,39.69"/></g></g><circle class="cls-5" cx="152" cy="152" r="152"/><g class="cls-6"><g class="cls-7"><path class="cls-8" d="M-51,107.9V244.6s0,8.8,9,8.8H245s9,0,9-8.8V108H68"/></g><g class="cls-7"><path class="cls-9" d="M60.1,76.7V232.5s0,7.3,8.3,7.3H384.8s8.3,0,8.3-7.3V77"/></g><g class="cls-7"><path class="cls-10" d="M254,239.7V99.3s0-8.7-9.2-8.7H60.1V231.7s0,8,8.5,8Z"/></g><g class="cls-11"><path class="cls-12" d="M99.8,235.1A36.17,36.17,0,1,1,90,184.9a36.1,36.1,0,0,1,9.8,50.2"/></g><g class="cls-11"><path class="cls-12" d="M124.4,197.7a22.77,22.77,0,1,1-6.2-31.6,22.8,22.8,0,0,1,6.2,31.6"/></g><g class="cls-11"><path class="cls-12" d="M121.9,136.8a74.44,74.44,0,0,1-12.3-42.4,15.4,15.4,0,0,1,30.8.6,43.12,43.12,0,0,0,7.2,24.9,44.19,44.19,0,0,0,20,16.5,15.37,15.37,0,0,1-11.5,28.5,75.79,75.79,0,0,1-34.2-28.1"/></g><g class="cls-11"><path class="cls-12" d="M260.8,126.1C240.2,115.2,199,111,191.3,133c-4.9,14,21.4,23.4,33.1,20.5-9,5.7-17.8,40.6-5.8,48.8,13.1,8.9,36.6-19.9,36.9-29.8,0,0,21,24.8,31.4,16.5,19.7-15.7-2.4-50.3-26.1-62.9"/></g><g class="cls-11"><path class="cls-12" d="M48,146.8l42.7-1.4a5.69,5.69,0,0,0,4.7-8.7L74.1,101.2a5.76,5.76,0,0,0-9.9.1l-21.4,37a5.7,5.7,0,0,0,5.2,8.5"/></g><g class="cls-11"><path class="cls-12" d="M176.7,244a31.07,31.07,0,1,1,27.2-34.5A31.12,31.12,0,0,1,176.7,244"/></g><g class="cls-11"><path class="cls-12" d="M174.7,226.9a13.79,13.79,0,1,1,12.1-15.3,13.69,13.69,0,0,1-12.1,15.3"/></g><g class="cls-7"><path class="cls-13" d="M393,77V69.9s0-7.6-8.3-7.6H68.3s-8.3,0-8.3,7.6v6.8"/></g><g class="cls-7"><path class="cls-13" d="M60.2,90.5H-42.6s-8.4,0-8.4,9.2v8.1H60.2"/></g></g></svg>