<?xml version="1.0" encoding="utf-8"?>
<!-- Generator: Adobe Illustrator 16.0.0, SVG Export Plug-In . SVG Version: 6.00 Build 0)  -->
<!DOCTYPE svg PUBLIC "-//W3C//DTD SVG 1.1//EN" "http://www.w3.org/Graphics/SVG/1.1/DTD/svg11.dtd">
<svg version="1.1" id="Layer_1" xmlns="http://www.w3.org/2000/svg" xmlns:xlink="http://www.w3.org/1999/xlink" x="0px" y="0px"
	 viewBox="250 200 580 580" enable-background="new 0 0 1080 1080" xml:space="preserve">
<g>
	<defs>
		<rect id="SVGID_1_" width="1080" height="1080"/>
	</defs>
	<clipPath id="SVGID_2_">
		<use xlink:href="#SVGID_1_"  overflow="visible"/>
	</clipPath>
	<g clip-path="url(#SVGID_2_)">
		<defs>
			<rect id="SVGID_3_" width="1080" height="1080"/>
		</defs>
		<clipPath id="SVGID_4_">
			<use xlink:href="#SVGID_3_"  overflow="visible"/>
		</clipPath>
		<path clip-path="url(#SVGID_4_)" fill="#CCB59E" d="M433.376,346.448c-20.484,4.636-42.286,16.577-53.138,35.081
			c-18.713,31.905-20.233,76.355-15.122,111.387c3.982,27.28,13.113,64.608,31.556,86.256c20.524,24.083,66.105,14.013,92.339,9.941
			c30.281-4.704,53.436-6.957,69.938-35.502c16.573-28.661,20.298-71.434,22.767-104.826c1.637-22.079,0.287-46.367-9.438-66.856
			C546.029,326.637,483.418,335.12,433.376,346.448"/>
		<path clip-path="url(#SVGID_4_)" fill="#904428" d="M467.769,635.425h20.672l-53.578,141.594c0,0-2.681,3.634-8.964,3.601
			c0,0-6.449,0.67-3.612-4.08L467.769,635.425z"/>
		<g clip-path="url(#SVGID_4_)">
			<g>
				<defs>
					<rect id="SVGID_5_" x="421.586" y="635.425" width="66.855" height="145.225"/>
				</defs>
				<clipPath id="SVGID_6_">
					<use xlink:href="#SVGID_5_"  overflow="visible"/>
				</clipPath>
				<path clip-path="url(#SVGID_6_)" fill="#B4B4B3" d="M488.441,635.425l-53.578,141.594c0,0-2.681,3.634-8.964,3.601
					c0,0-5.281,0.537-4.155-2.899c0.449,0.476,0.989,0.876,1.674,1.104c2.782,0.921,5.952-0.03,7.912-1.756l48.052-141.644H488.441z
					"/>
			</g>
		</g>
		<path clip-path="url(#SVGID_4_)" fill="#904428" d="M413.792,600.968h20.672l-53.576,141.596c0,0-2.684,3.628-8.964,3.599
			c0,0-6.453,0.669-3.612-4.08L413.792,600.968z"/>
		<g clip-path="url(#SVGID_4_)">
			<g>
				<defs>
					<rect id="SVGID_7_" x="367.61" y="600.968" width="66.854" height="145.225"/>
				</defs>
				<clipPath id="SVGID_8_">
					<use xlink:href="#SVGID_7_"  overflow="visible"/>
				</clipPath>
				<path clip-path="url(#SVGID_8_)" fill="#B4B4B3" d="M434.464,600.968l-53.576,141.596c0,0-2.685,3.628-8.964,3.599
					c0,0-5.281,0.533-4.157-2.899c0.449,0.474,0.989,0.874,1.674,1.101c2.784,0.923,5.953-0.03,7.91-1.756l48.054-141.64H434.464z"
					/>
			</g>
		</g>
		<path clip-path="url(#SVGID_4_)" fill="#904428" d="M654.491,618.551h-20.67l53.574,141.594c0,0,2.685,3.63,8.968,3.599
			c0,0,6.449,0.672,3.612-4.078L654.491,618.551z"/>
		<g clip-path="url(#SVGID_4_)">
			<g>
				<defs>
					<rect id="SVGID_9_" x="633.821" y="618.551" width="66.854" height="145.224"/>
				</defs>
				<clipPath id="SVGID_10_">
					<use xlink:href="#SVGID_9_"  overflow="visible"/>
				</clipPath>
				<path clip-path="url(#SVGID_10_)" fill="#B4B4B3" d="M633.821,618.551l53.574,141.594c0,0,2.685,3.63,8.968,3.599
					c0,0,5.278,0.539,4.155-2.895c-0.448,0.474-0.989,0.873-1.675,1.099c-2.782,0.924-5.954-0.031-7.91-1.752L642.88,618.551
					H633.821z"/>
			</g>
		</g>
		<path clip-path="url(#SVGID_4_)" fill="#904428" d="M584.963,600.968H564.29l53.574,141.596c0,0,2.685,3.628,8.964,3.599
			c0,0,6.456,0.669,3.612-4.08L584.963,600.968z"/>
		<g clip-path="url(#SVGID_4_)">
			<g>
				<defs>
					<rect id="SVGID_11_" x="564.29" y="600.968" width="66.853" height="145.225"/>
				</defs>
				<clipPath id="SVGID_12_">
					<use xlink:href="#SVGID_11_"  overflow="visible"/>
				</clipPath>
				<path clip-path="url(#SVGID_12_)" fill="#B4B4B3" d="M564.29,600.968l53.574,141.596c0,0,2.685,3.628,8.964,3.599
					c0,0,5.285,0.533,4.157-2.899c-0.449,0.474-0.988,0.874-1.673,1.101c-2.785,0.923-5.953-0.03-7.911-1.756l-48.052-141.64H564.29
					z"/>
			</g>
		</g>
		<path clip-path="url(#SVGID_4_)" fill="#CEBCA7" d="M423.293,555.866c23.902-3.543,47.474-8.764,71.409-12.572
			c31.17-4.964,75.946-15.051,107.507-9.874c20.496,3.361,38.129,12.065,54.834,20.354c18.778,9.311,36.221,19.118,38.847,36.431
			c2.48,16.372-7.134,28.443-26.072,37.384c-44.104,20.83-109.068,30.144-161.436,32.521c-40.736,1.845-89.309-6.223-118.254-27.972
			c-16.726-12.566-20.873-33.631-16.488-49.993C378.98,562.195,396.92,559.777,423.293,555.866"/>
		<path clip-path="url(#SVGID_4_)" fill="#CEBCA7" d="M423.293,555.866c23.902-3.543,47.474-8.764,71.409-12.572
			c31.17-4.964,75.946-15.051,107.507-9.874c20.496,3.361,38.129,12.065,54.834,20.354c18.778,9.311,36.221,19.118,38.847,36.431
			c2.48,16.372-7.134,28.443-26.072,37.384c-44.104,20.83-109.068,30.144-161.436,32.521c-40.736,1.845-89.309-6.223-118.254-27.972
			c-16.726-12.566-20.873-33.631-16.488-49.993C378.98,562.195,396.92,559.777,423.293,555.866"/>
		<path clip-path="url(#SVGID_4_)" fill="#F1A57F" d="M475.022,324.566l19.065-34.904c2.141-3.921,5.572-7.013,9.747-8.601
			c6.246-2.375,14.462-3.283,14.633,8.276c0.034,2.327-0.483,4.633-1.418,6.764l-5.479,12.483c-0.218,0.497,0.209,1.034,0.742,0.934
			c2.441-0.457,4.636-1.78,6.182-3.724l15.512-19.507c2.074-2.608,4.982-4.432,8.245-5.104c6.639-1.367,16.756-1.678,14.01,10.146
			c-0.234,1.01-0.59,1.995-1.02,2.939l-7.154,15.682c-0.193,0.425,0.194,0.883,0.644,0.762c2.346-0.625,4.451-1.934,6.049-3.759
			l8.664-9.903c3.749-4.284,9.032-7.044,14.719-7.308c4.842-0.224,9.573,1.232,9.677,7.74c0.04,2.472-0.723,4.892-2.003,7.007
			l-11.349,18.751L475.022,324.566z"/>
		<path clip-path="url(#SVGID_4_)" fill="#FACA78" d="M592.045,595.346H461.572c-11.664,0-21.119-9.455-21.119-21.119V374.294
			c0-29.289,23.744-53.033,53.033-53.033h66.645c29.289,0,53.033,23.744,53.033,53.033v199.933
			C613.164,585.891,603.708,595.346,592.045,595.346"/>
		<path clip-path="url(#SVGID_4_)" fill="#72B3E9" d="M591.511,595.346H462.105c-11.959,0-21.653-9.694-21.653-21.653V463.305
			h172.711v110.388C613.164,585.651,603.47,595.346,591.511,595.346"/>
		<rect x="440.453" y="499.219" clip-path="url(#SVGID_4_)" fill="#4294C8" width="172.711" height="47.368"/>
		<path clip-path="url(#SVGID_4_)" fill="#4C90C7" d="M571.252,742.567h-28.255V593.769c0-7.802,6.325-14.127,14.127-14.127
			c7.803,0,14.128,6.325,14.128,14.127V742.567z"/>
		<path clip-path="url(#SVGID_4_)" fill="#F9C979" d="M590.7,757.245h-47.703v-14.678H590.7c4.054,0,7.339,3.286,7.339,7.339
			C598.039,753.96,594.754,757.245,590.7,757.245"/>
		<path clip-path="url(#SVGID_4_)" fill="#F9C979" d="M693.818,686.301l-46.788,9.298l-2.861-14.396l46.789-9.297
			c3.976-0.791,7.839,1.792,8.63,5.767C700.377,681.647,697.794,685.511,693.818,686.301"/>
		<path clip-path="url(#SVGID_4_)" fill="#4C90C7" d="M484.915,585.396c-0.378,5.856,2.193,11.654,14.782,9.95
			c0,0,49.539-20.107,74.491-15.704c24.953,4.403,45.657,7.903,69.981,101.561l24.366-4.843c0,0-17.655-122.771-94.348-122.771
			c0,0-45.83-0.65-79.979,17.628C488.915,574.049,485.303,579.403,484.915,585.396"/>
		<path clip-path="url(#SVGID_4_)" fill="#333333" d="M552.171,566.064h-49.172c-5.674,0-10.274-4.601-10.274-10.273v-98.345
			c0-5.674,4.6-10.274,10.274-10.274h49.172c5.674,0,10.274,4.6,10.274,10.274v98.345
			C562.445,561.464,557.845,566.064,552.171,566.064"/>
		<path clip-path="url(#SVGID_4_)" fill="#FFFFFD" d="M529.959,391.982h49.778c0,0,4.096-33.081-24.889-32.45
			C525.863,360.163,529.959,391.982,529.959,391.982"/>
		<path clip-path="url(#SVGID_4_)" fill="#FFFFFD" d="M481.455,391.982h49.778c0,0,4.096-33.081-24.889-32.45
			C477.358,360.163,481.455,391.982,481.455,391.982"/>
		<path clip-path="url(#SVGID_4_)" fill="#4F432F" d="M563.67,391.982c0,0,6.301-22.054-12.917-22.054s-13.862,22.054-13.862,22.054
			H563.67z"/>
		<path clip-path="url(#SVGID_4_)" fill="#4F432F" d="M522.398,391.982c0,0,6.301-22.054-12.917-22.054
			c-19.218,0-13.862,22.054-13.862,22.054H522.398z"/>
		<path clip-path="url(#SVGID_4_)" fill="#5B4D3E" d="M515.467,412.146c0,0,16.249,16.249,28.141,1.966
			c1.438-1.727,3.992-3.318,5.919-2.163c1.781,1.069,2.61,2.832,0.905,6.183c-4.413,8.669-16.853,9.452-16.853,9.452
			s-12.756,1.26-22.523-9.452c0,0-3.117-2.686-0.596-5.487C512.979,409.843,515.467,412.146,515.467,412.146"/>
		<path clip-path="url(#SVGID_4_)" fill="#F1842D" d="M501.077,410.341c-17.332,0-31.433-14.101-31.433-31.433
			c0-17.333,14.101-31.433,31.433-31.433s31.433,14.1,31.433,31.433C532.51,396.24,518.409,410.341,501.077,410.341
			 M501.077,353.947c-13.764,0-24.961,11.197-24.961,24.961s11.197,24.961,24.961,24.961s24.96-11.197,24.96-24.961
			S514.841,353.947,501.077,353.947"/>
		<path clip-path="url(#SVGID_4_)" fill="#F1842D" d="M557.47,410.341c-17.331,0-31.433-14.101-31.433-31.433
			c0-17.333,14.102-31.433,31.433-31.433c17.333,0,31.435,14.1,31.435,31.433C588.904,396.24,574.803,410.341,557.47,410.341
			 M557.47,353.947c-13.764,0-24.96,11.197-24.96,24.961s11.196,24.961,24.96,24.961c13.765,0,24.963-11.197,24.963-24.961
			S571.234,353.947,557.47,353.947"/>
		<path clip-path="url(#SVGID_4_)" fill="#F17F39" d="M474.241,365.63l-4.123,8.504l-27.882-13.517
			c-2.349-1.139-4.306-4.322-3.167-6.67c1.138-2.349,4.081-3.391,6.43-2.252L474.241,365.63z"/>
		<path clip-path="url(#SVGID_4_)" fill="#F17F39" d="M582.285,367.248l4.124,8.505l27.882-13.518
			c2.348-1.139,4.211-4.614,3.072-6.963c-1.139-2.348-3.987-3.097-6.335-1.959L582.285,367.248z"/>
		<path clip-path="url(#SVGID_4_)" fill="#FACA6D" d="M613.164,463.305c0,0,112.275,47.794,92.708,71.532
			c-19.173,23.258-110.516,5.248-151.707,2.702c-2.675-0.165-5.307-0.8-7.702-2.001c-3.124-1.566-6.334-4.23-5.466-8.4
			c1.604-7.698,9.435-7.377,9.435-7.377s110.612,12.614,132.367,8.755c1.647-0.293,2.353-2.245,1.273-3.524
			c-5.704-6.758-25.124-26.068-70.908-41.158V463.305z"/>
		<path clip-path="url(#SVGID_4_)" fill="#F1CC7B" d="M440.453,468.758c0,0-59.198,72.362-41.555,92.797
			c17.642,20.435,93.827-46.399,93.827-46.399v-22.661c0,0-66.241,55.899-74.581,54.092s10.938-33.242,22.309-48.96V468.758z"/>
		<path clip-path="url(#SVGID_4_)" fill="#EDEDED" d="M516.851,481.709h-11.238c-3.296,0-5.968-2.672-5.968-5.968v-12.687
			c0-3.296,2.672-5.968,5.968-5.968h11.238c3.296,0,5.968,2.672,5.968,5.968v12.687
			C522.819,479.038,520.147,481.709,516.851,481.709"/>
		<path clip-path="url(#SVGID_4_)" fill="#333333" d="M510.189,465.137c0,2-1.621,3.621-3.621,3.621s-3.621-1.621-3.621-3.621
			s1.621-3.621,3.621-3.621S510.189,463.137,510.189,465.137"/>
		<path clip-path="url(#SVGID_4_)" fill="#333333" d="M520.41,469.398c0,2-1.622,3.621-3.621,3.621c-2,0-3.621-1.621-3.621-3.621
			s1.621-3.621,3.621-3.621C518.788,465.777,520.41,467.398,520.41,469.398"/>
		<path clip-path="url(#SVGID_4_)" fill="#333333" d="M510.189,475.674c0,2-1.621,3.621-3.621,3.621s-3.621-1.621-3.621-3.621
			s1.621-3.621,3.621-3.621S510.189,473.674,510.189,475.674"/>
		<path clip-path="url(#SVGID_4_)" fill="#F3832B" d="M517.771,354.966c0,0,11.871-9.186,21.823,0l-4.401,5.742l-2.106-4.912h-7.655
			l-1.702,4.912L517.771,354.966z"/>
	</g>
</g>
</svg>
