<svg id="Layer_1" data-name="Layer 1" xmlns="http://www.w3.org/2000/svg" xmlns:xlink="http://www.w3.org/1999/xlink" viewBox="0 0 304 304"><defs><style>.cls-1{fill:none;}.cls-2{fill:#fcf4ea;}.cls-3{clip-path:url(#clip-path);}.cls-4{fill:#8ed1cd;}.cls-5{clip-path:url(#clip-path-2);}.cls-6{fill:#5a6175;}.cls-7{fill:#fcf5eb;}.cls-8{clip-path:url(#clip-path-3);}.cls-9{fill:#4b5161;}.cls-10{fill:#544f59;}.cls-11{fill:#55c2bb;}.cls-12{fill:#6e778f;}.cls-13{clip-path:url(#clip-path-4);}.cls-14{fill:#67c7c1;}.cls-15{fill:#828dab;}.cls-16{fill:#fc6e5b;}.cls-17{clip-path:url(#clip-path-5);}.cls-18{fill:#ff7c6b;}.cls-19{fill:#fff;}.cls-20{fill:#413d45;}.cls-21{fill:#e85d4a;}.cls-22{fill:#fed58c;}.cls-23{clip-path:url(#clip-path-6);}.cls-24{fill:#f4e6d4;}</style><clipPath id="clip-path"><circle class="cls-1" cx="152" cy="152" r="152"/></clipPath><clipPath id="clip-path-2"><rect class="cls-1" x="13.99" y="24.92" width="278.14" height="278.14" rx="134.01"/></clipPath><clipPath id="clip-path-3"><path class="cls-1" d="M166.53,159.08a21.24,21.24,0,0,0-16.87,17.8,21.1,21.1,0,1,0,2.76,13.69,21.21,21.21,0,1,0,14.11-31.49Z"/></clipPath><clipPath id="clip-path-4"><path class="cls-1" d="M231,148.39c-5.24-18-7.49-39.45-17.5-59.47s-30-34.11-59.2-34.11-49.2,14.1-59.21,34.11-12.25,41.5-17.5,59.47c-7.85,26.9-34.55,38.09-25.95,70.67,5,19.12,23.79,29.88,47.57,32.38,9.32,1,100.86,1,110.18,0,23.78-2.5,42.52-13.26,47.57-32.38C265.55,186.48,238.85,175.29,231,148.39Z"/></clipPath><clipPath id="clip-path-5"><path class="cls-1" d="M215.16,99.59c-7.57-11.52-22.53-7.85-25.56-5.3,2.53-4.78,1.41-15-9.65-19.54-7.47-3.1-17.49-2.35-23.37,5.93-6.68-8.9-22.24-17.93-41.83-6.86a25.62,25.62,0,0,0-11.18,30.77c-5.4.13-12.43,4.31-13.26,11-.77,6.22,3.52,12,11.6,13.1,13.93,1.93,85.06,11.43,94,12.68,6.1.84,15.7,2.61,18.8-4.77,2.42-5.75-.82-10.66-5.69-12.16C215.77,120.74,221.87,109.79,215.16,99.59Z"/></clipPath><clipPath id="clip-path-6"><circle class="cls-1" cx="-197.38" cy="152" r="152"/></clipPath></defs><title>EQ is IQ WP</title><circle class="cls-2" cx="152" cy="152" r="152"/><g class="cls-3"><path class="cls-4" d="M138.33,54.7l10.52,0h0Z"/><path class="cls-4" d="M148.85,54.67h0Z"/><g class="cls-5"><path class="cls-6" d="M109.93,243.68h98a14.63,14.63,0,0,1,14.63,14.63v2.6a53.31,53.31,0,0,1-53.31,53.31H147.19A52.61,52.61,0,0,1,94.57,261.6V259a15.36,15.36,0,0,1,15.36-15.36Z"/><path class="cls-4" d="M150.6,69.42a7.23,7.23,0,0,1-7.1-5.92c-2-10.81-11.14-18.17-11.23-18.24l0,0,8.87-11.42c.55.43,13.56,10.69,16.56,27a7.23,7.23,0,0,1-5.8,8.41A7.37,7.37,0,0,1,150.6,69.42Z"/><path class="cls-4" d="M157.47,74.22A7.24,7.24,0,0,1,151,63.76c4.89-9.83,2-21.18,2-21.3a7.23,7.23,0,1,1,13.95-3.81c.18.67,4.43,16.69-3,31.56A7.22,7.22,0,0,1,157.47,74.22Z"/><path class="cls-4" d="M231,148.39c-5.24-18-7.49-39.45-17.5-59.47s-30-34.11-59.2-34.11-49.2,14.1-59.21,34.11-12.25,41.5-17.5,59.47c-7.85,26.9-34.55,38.09-25.95,70.67,5,19.12,23.79,29.88,47.57,32.38,9.32,1,100.86,1,110.18,0,23.78-2.5,42.52-13.26,47.57-32.38C265.55,186.48,238.85,175.29,231,148.39Z"/><ellipse class="cls-7" cx="131.42" cy="187.82" rx="21.24" ry="21.1" transform="translate(-34.74 29.9) rotate(-11.47)"/><ellipse class="cls-7" cx="170.72" cy="179.92" rx="21.24" ry="21.1" transform="translate(-32.38 37.56) rotate(-11.47)"/><g class="cls-8"><path class="cls-9" d="M125.6,158.9a12.06,12.06,0,1,0,14.28,9.43A12.1,12.1,0,0,0,125.6,158.9Z"/><path class="cls-9" d="M164.9,151a12.06,12.06,0,1,0,14.28,9.43A12.1,12.1,0,0,0,164.9,151Z"/></g><polygon class="cls-4" points="115.12 214.51 102.67 190.19 198.41 188.68 191.63 200.76 115.12 214.51"/><path class="cls-10" d="M154.08,212H154a15.85,15.85,0,0,1-14.44-8.82l5.53-2.43v0A9.86,9.86,0,0,0,154,206h.08c6.9,0,9.35-5,9.45-5.24l0,0L169,203.2A16.17,16.17,0,0,1,154.08,212Z"/><path class="cls-11" d="M109.25,323.52a8.57,8.57,0,0,1-5.62-15c4.05-3.51,6.39-8.57,7.38-15.94,1-7.6.45-16.42-.14-25.76s-1.21-19-.23-28.22c1.21-11.32,4.73-20.18,10.74-27.09a8.57,8.57,0,1,1,12.92,11.25c-8.45,9.71-7.42,25.87-6.34,43,.62,9.75,1.26,19.84,0,29.1-1.55,11.6-5.84,20.31-13.13,26.63A8.56,8.56,0,0,1,109.25,323.52Z"/><path class="cls-12" d="M114.86,321.43l-11.23-12.95c4.05-3.51,6.39-8.57,7.38-15.94,1-7.6.45-16.42-.14-25.76-.12-1.86-.24-3.73-.35-5.6l17.11-1c.1,1.83.22,3.67.33,5.5.62,9.75,1.26,19.84,0,29.1C126.44,306.4,122.15,315.11,114.86,321.43Z"/><g class="cls-13"><circle class="cls-14" cx="64.46" cy="209.44" r="27.35"/><circle class="cls-11" cx="244.11" cy="209.44" r="27.35"/></g><circle class="cls-15" cx="156.84" cy="269.55" r="6.3"/><circle class="cls-15" cx="156.84" cy="288.2" r="6.3"/></g><path class="cls-4" d="M159.7,54.67Z"/><path class="cls-16" d="M215.16,99.59c-7.57-11.52-22.53-7.85-25.56-5.3,2.53-4.78,1.41-15-9.65-19.54-7.47-3.1-17.49-2.35-23.37,5.93-6.68-8.9-22.24-17.93-41.83-6.86a25.62,25.62,0,0,0-11.18,30.77c-5.4.13-12.43,4.31-13.26,11-.77,6.22,3.52,12,11.6,13.1,13.93,1.93,85.06,11.43,94,12.68,6.1.84,15.7,2.61,18.8-4.77,2.42-5.75-.82-10.66-5.69-12.16C215.77,120.74,221.87,109.79,215.16,99.59Z"/><g class="cls-17"><path class="cls-18" d="M259,105.27c-7.57-11.52-22.52-7.85-25.55-5.3,2.52-4.78,1.4-15-9.65-19.54-7.48-3.11-17.49-2.35-23.38,5.93C193.74,77.46,190.2,49,171.47,61.5c-18,12-22.4,38-18,49.71-5.4.13-18.49,3.37-19.33,10.08-.77,6.22,3.52,12,11.61,13.1,13.92,1.93,85.06,11.43,94,12.67,6.1.85,15.7,2.62,18.8-4.77,2.42-5.75-.82-10.65-5.69-12.16C259.61,126.42,265.71,115.47,259,105.27Z"/></g><circle class="cls-19" cx="145.78" cy="111.46" r="14.45"/><circle class="cls-20" cx="146" cy="117.68" r="6.31"/><circle class="cls-19" cx="172.69" cy="115.19" r="14.45"/><circle class="cls-20" cx="170.73" cy="121.38" r="6.31"/><path class="cls-11" d="M212.55,148.65l-.41,0L89.4,131.6a3,3,0,0,1,.81-5.87l122.75,17a3,3,0,0,1-.41,5.9Z"/><path class="cls-16" d="M94,121.71a4,4,0,0,1-3.69-5.66,28.58,28.58,0,0,1,5.79-7.86c1.69-1.81,3.44-3.67,3.7-5,.43-2.3-.82-5-2.15-7.75a25.27,25.27,0,0,1-2.51-7.05,33.2,33.2,0,0,1,.23-8.5c.32-2.7.65-5.48-.12-6.85-1.1-1.93-3.92-3.19-6.65-4.41A24.65,24.65,0,0,1,82,64.77a20.52,20.52,0,0,1-5.9-8.72C75.29,54,75,53.29,72.57,52.23a4,4,0,1,1,3.22-7.41c5.52,2.4,6.8,5.66,7.82,8.28a12.71,12.71,0,0,0,3.8,5.68,19.65,19.65,0,0,0,4.51,2.44c3.56,1.58,8,3.55,10.38,7.8,2.08,3.67,1.59,7.79,1.12,11.78a26.24,26.24,0,0,0-.26,6.4A19.74,19.74,0,0,0,105,92c1.65,3.48,3.69,7.82,2.78,12.68-.69,3.69-3.26,6.43-5.74,9.08a22.18,22.18,0,0,0-4.29,5.59A4,4,0,0,1,94,121.71Z"/><path class="cls-18" d="M208.24,125.07a4,4,0,0,1-.84-8,47.33,47.33,0,0,1,7.36-.82c3-.16,6.09-.34,7.08-1.45,1.17-1.32,1.06-4.43,1-7.43a33.4,33.4,0,0,1,.35-7.72,27.13,27.13,0,0,1,3.69-8.2c1.47-2.5,2.86-4.86,2.93-6.86s-1-4.58-2-7C226.42,74.34,225,71,225.45,67.5c1-8.37,7.67-12,12.11-14.39l.64-.35a4,4,0,1,1,3.86,7.09l-.66.36c-4.64,2.51-7.48,4.31-7.93,8.22-.17,1.41.81,3.77,1.75,6,1.29,3.1,2.75,6.63,2.62,10.4-.14,4.07-2.22,7.59-4.05,10.69a21.28,21.28,0,0,0-2.73,5.71,27.27,27.27,0,0,0-.19,5.84c.15,4.37.32,9.31-3,13s-8,3.91-12.68,4.17a41.84,41.84,0,0,0-6.12.65A4.09,4.09,0,0,1,208.24,125.07Z"/><path class="cls-21" d="M179.15,138.06a48,48,0,0,0,6.76-4.06,2.42,2.42,0,1,0-2.84-3.93A40.68,40.68,0,0,1,169,136.65Z"/><path class="cls-21" d="M132.26,131.56l10.08,1.4a40.77,40.77,0,0,1-12.69-11.59,2.42,2.42,0,0,0-3.93,2.83A47.75,47.75,0,0,0,132.26,131.56Z"/><path class="cls-22" d="M28.23,79.83c3.51-2.51,7.33-5.44,11.74-6,2.71-.36,6.3.45,7.73,3,1.61,2.9.36,7.06-2,9.18a3.23,3.23,0,0,1-3.31.86,2,2,0,0,1-.7-2.72c1.29-3.23,6.1-4.39,9.19-4.33a10.14,10.14,0,0,1,8.61,4.6c1.64,2.71,2.22,6.37.25,9.11-.7,1-1.89,1.76-2.83,1.37-.06,0-.49-.35-.26-.13a.65.65,0,0,1-.2-.38A3.78,3.78,0,0,1,56.7,93c1.59-3.34,6.36-4.29,9.94-3.24a9.84,9.84,0,0,1,6.77,8.29,3.29,3.29,0,0,0,3.2,3.2,3.22,3.22,0,0,0,3.2-3.2A16.45,16.45,0,0,0,69.63,84C64,81.8,56.39,83,52.48,87.83c-1.84,2.31-3,5.37-2.2,8.33a7.37,7.37,0,0,0,7.32,5.22c6.81-.15,10.31-7.69,9.58-13.67a16.15,16.15,0,0,0-10.8-13.36,18.51,18.51,0,0,0-17.59,3.24,10.21,10.21,0,0,0-3.72,8.15,8,8,0,0,0,5.73,7.34C47.4,95,53.14,88.94,54.42,83a12.16,12.16,0,0,0-9.7-15.25C37.26,66.22,30.83,70.13,25,74.3a3.3,3.3,0,0,0-1.15,4.38,3.23,3.23,0,0,0,4.38,1.15Z"/><path class="cls-22" d="M185.83,35.3l12.78,5.23a.75.75,0,0,0,.93-.32l6.05-10.74a.74.74,0,0,1,1.37.2l4,17.08a.76.76,0,0,0,.47.53L223,51.6a.75.75,0,0,1,0,1.4l-10.42,3.78a.73.73,0,0,0-.41.36l-6,11.89a.74.74,0,0,1-1.32,0l-6.36-12.22a.74.74,0,0,0-.72-.39l-13.32,1a.75.75,0,0,1-.65-1.2l5.36-7.13a.75.75,0,0,0,.1-.71l-4.47-12.13A.74.74,0,0,1,185.83,35.3Z"/><path class="cls-22" d="M56.06,121.66a13.86,13.86,0,1,0,13.86,13.86A13.87,13.87,0,0,0,56.06,121.66Zm0,18.48a4.62,4.62,0,1,1,4.62-4.62A4.62,4.62,0,0,1,56.06,140.14Z"/><path class="cls-22" d="M257.21,116l1.3-33.5c.07-2,1.91-3.56,3.54-3l16.2,5.88c1.52.55,2,2.68,1,4.3l-17.5,27.62C260.22,119.71,257.1,118.8,257.21,116Z"/><ellipse class="cls-22" cx="256" cy="127.73" rx="6.06" ry="7.95" transform="translate(46.26 322.3) rotate(-69.37)"/><path class="cls-22" d="M221.46,147.62l19.85,28.5c.29.43.95.35,1-.12l2.19-16.21a.54.54,0,0,1,.94-.21l24,23.5a.57.57,0,0,0,.89-.05l8.08-14a.55.55,0,0,0-.24-.73L238.45,143.8a.51.51,0,0,0-.83.35l-.37,15.27c0,.44-.56.61-.93.28l-14-12.69C221.77,146.55,221.08,147.07,221.46,147.62Z"/></g><g class="cls-23"><polygon class="cls-24" points="19.61 291.18 -687.12 291.18 -657.94 218.13 -9.57 218.13 19.61 291.18"/></g></svg>