<svg id="Layer_1" data-name="Layer 1" xmlns="http://www.w3.org/2000/svg" xmlns:xlink="http://www.w3.org/1999/xlink" viewBox="0 0 304 304"><defs><style>.cls-1{fill:none;}.cls-2{clip-path:url(#clip-path);}.cls-3{fill:#f5e5d4;}.cls-4{clip-path:url(#clip-path-2);}.cls-5{fill:#fff;}.cls-6{fill:#fcf4ea;}.cls-7{clip-path:url(#clip-path-4);}.cls-8{fill:#91d6b3;}.cls-9{fill:#7bcdc8;}.cls-10{fill:#8ed1cd;}.cls-11{fill:#ffdea6;}.cls-12{fill:#f5914e;}.cls-13{fill:#ff7c6b;}.cls-14{fill:#f3f1ed;}.cls-15{fill:#4b5161;}.cls-16{fill:#e85d4a;}.cls-17{fill:#faca78;}.cls-18{fill:#55c2bb;}.cls-19{fill:#f3e6d3;}.cls-20{fill:#fdd58b;}</style><clipPath id="clip-path"><circle class="cls-1" cx="-190.58" cy="152" r="152"/></clipPath><clipPath id="clip-path-2"><rect class="cls-1" x="-364.88" y="29.3" width="435.4" height="239.4"/></clipPath><clipPath id="clip-path-4"><circle class="cls-1" cx="152" cy="152" r="152"/></clipPath></defs><title>Artboard 1 copy 11</title><g class="cls-2"><polygon class="cls-3" points="-336.48 210.2 -364.88 268.7 70.52 268.7 42.22 210.2 -336.48 210.2"/><g class="cls-4"><path class="cls-5" d="M-25.88,213.1a2.72,2.72,0,0,1-1.7-.6,2.67,2.67,0,0,1-.4-3.7l51.3-62.4-67-49.1a2.7,2.7,0,0,1-.6-3.7,2.7,2.7,0,0,1,3.7-.6l69.2,50.8a2.65,2.65,0,0,1,1.1,1.8,2.52,2.52,0,0,1-.6,2L-24,212.1a2,2,0,0,1-1.9,1"/></g><g class="cls-4"><path class="cls-5" d="M34.62,145.9a9.4,9.4,0,1,1-9.4-9.4,9.39,9.39,0,0,1,9.4,9.4"/></g></g><circle class="cls-6" cx="152" cy="152" r="152"/><g class="cls-7"><rect class="cls-8" x="197.8" y="150.7" width="29.6" height="30.8"/><rect class="cls-9" x="197.8" y="115.4" width="29.6" height="29.6"/><rect class="cls-9" x="197.8" y="80.1" width="29.6" height="29.6"/><rect class="cls-9" x="157.9" y="115.4" width="34.2" height="29.6"/><rect class="cls-8" x="303.9" y="80.1" width="30.8" height="29.6"/><rect class="cls-8" x="303.9" y="115.4" width="30.8" height="29.6"/><rect class="cls-9" x="157.9" y="47.4" width="176.8" height="27.1"/><rect class="cls-9" x="157.9" y="80.1" width="34.2" height="29.6"/><rect class="cls-9" x="233" y="150.7" width="29.6" height="30.8"/><rect class="cls-9" x="233" y="115.4" width="29.6" height="29.6"/><rect class="cls-9" x="268.3" y="80.1" width="29.8" height="29.6"/><rect class="cls-8" x="303.9" y="150.7" width="30.8" height="30.8"/><rect class="cls-8" x="157.9" y="150.7" width="34.2" height="30.8"/><rect class="cls-9" x="268.3" y="115.4" width="29.8" height="29.6"/><rect class="cls-9" x="233" y="80.1" width="29.6" height="29.6"/><rect class="cls-9" x="268.3" y="150.7" width="29.8" height="30.8"/><path class="cls-10" d="M137.9,229.3H66a22,22,0,0,1-22-23.8l8-104.1A22.12,22.12,0,0,1,74,81h55.9a22.12,22.12,0,0,1,22,20.4l8,104.1A22,22,0,0,1,137.9,229.3Z"/><path class="cls-11" d="M58.7,226.4c-5.1,0-9.6-1.3-12.9-4.7a14.78,14.78,0,0,1-4.3-14.2c4.2-18.8,42.6-34.4,59-40.2a5.63,5.63,0,0,1,3.8,10.6C70.9,189.8,54.2,202.6,52.6,210c-.3,1.2-.2,2.3,1.3,3.8.9.9,4.2,2.7,15-.4,8.2-2.4,17.2-6.6,24.4-10,8.1-3.8,11.5-5.4,14.3-5.4,4.7,0,8.6,2.9,10.7,8.1a22.67,22.67,0,0,1,1.5,6.2,5.62,5.62,0,1,1-11.2,1,10,10,0,0,0-1.2-3.9c-1.8.6-6,2.6-9.4,4.2C85.8,219.2,70.5,226.4,58.7,226.4Z"/><path class="cls-12" d="M169.8,223.9a4.74,4.74,0,0,1-4.7-4.6c-.5-21.4-17.6-30.3-19.5-31.3a4.65,4.65,0,0,1,4-8.4A45.3,45.3,0,0,1,174.4,219a4.69,4.69,0,0,1-4.6,4.8C169.9,223.9,169.8,223.9,169.8,223.9Z"/><path class="cls-11" d="M97.2,167,83.3,211.3a2.21,2.21,0,0,0,2,3.2l70,.2a2.23,2.23,0,0,0,2.2-2.8l-12.6-44.8Z"/><path class="cls-13" d="M155.8,171.1H82.9a29.46,29.46,0,0,1-29.4-31.5l1.2-17A40,40,0,0,1,94.6,85.3h49.6a39.94,39.94,0,0,1,39.9,37.3l1.2,17A29.6,29.6,0,0,1,155.8,171.1Z"/><ellipse class="cls-14" cx="142.33" cy="135.81" rx="14.4" ry="14.5" transform="translate(6.03 277.67) rotate(-89.8)"/><path class="cls-15" d="M155.8,140.9a8.7,8.7,0,1,0-8.7,8.6h.1a14.17,14.17,0,0,0,8.6-8Z"/><ellipse class="cls-14" cx="115.03" cy="135.71" rx="14.4" ry="14.5" transform="translate(-21.07 250.27) rotate(-89.8)"/><path class="cls-15" d="M128.5,140.8a8.7,8.7,0,1,0-8.7,8.6h.1a14.17,14.17,0,0,0,8.6-8C128.4,141.2,128.5,141,128.5,140.8Z"/><path class="cls-15" d="M129.1,161.2h-.2a11.92,11.92,0,0,1-9.1-4.7,1.78,1.78,0,0,1,2.8-2.2,8.55,8.55,0,0,0,6.3,3.4,9.06,9.06,0,0,0,6.9-3.4,1.77,1.77,0,0,1,2.7,2.3A12.24,12.24,0,0,1,129.1,161.2Z"/><circle class="cls-16" cx="92.4" cy="146.9" r="5.8"/><circle class="cls-16" cx="165.4" cy="146.9" r="5.8"/><path class="cls-17" d="M165.5,91.2a39.6,39.6,0,0,0-21-6H94.9A39.94,39.94,0,0,0,55,122.5l-.4,5.9c3.8,1.9,7.3,4.1,13.2,2.4,10.6-3.2,7.5-13.3,18.1-16.5s13.6,6.9,24.2,3.6,7.5-13.3,18.1-16.5,13.6,6.9,24.2,3.6C160.7,102.6,160.4,95.5,165.5,91.2Z"/><path class="cls-17" d="M102.6,74.8c-1.8,10.1-.2,19.2,6.2,20.8s12.3-5.6,15.5-15.4c4-12.5,0-19.1-6.4-20.7S104.8,63,102.6,74.8Z"/><path class="cls-17" d="M76.2,76.2C78,90.8,86,102.6,93.4,101.7s11.9-13.5,10.1-28.1S97.5,51.1,87,51.7,74.4,61.6,76.2,76.2Z"/><path class="cls-17" d="M90.2,102.2c-5.2,7.7-17.1,4.1-31.8-3.1C42.5,91.3,36.6,79.8,42.8,70.8s18.5-8.6,31.6,2.8C86.7,84.3,95.3,94.4,90.2,102.2Z"/><polygon class="cls-18" points="903.2 271.1 -21 271.1 39.3 203.9 843 203.9 903.2 271.1"/><path class="cls-19" d="M192.6,233.4H94.4a6,6,0,0,1-6-6h0a6,6,0,0,1,6-6h98.3a6,6,0,0,1,6,6h0A6.17,6.17,0,0,1,192.6,233.4Z"/><path class="cls-6" d="M235.4,233.5h-94c-4.3,0-7.1-3.5-6.3-7.8l12.6-67.5a9.81,9.81,0,0,1,9.3-7.8h94c4.3,0,7.1,3.5,6.3,7.8l-12.6,67.5A10,10,0,0,1,235.4,233.5Z"/><ellipse class="cls-20" cx="198.64" cy="192" rx="14" ry="11.6" transform="translate(-77.5 183.85) rotate(-42.34)"/><path class="cls-13" d="M58.7,226.4c-5.1,0-9.6-1.3-12.9-4.7a14.88,14.88,0,0,1-4.6-12.4c.8-7.7,7.6-15.7,20-23.7a5.64,5.64,0,0,1,6.1,9.5c-13.3,8.5-14.9,13.9-15,15.4a3.53,3.53,0,0,0,1.4,3.2c.9.9,4.2,2.7,15-.4,8.2-2.4,17.2-6.6,24.4-10,8.1-3.8,11.5-5.4,14.3-5.4,4.7,0,8.6,2.9,10.7,8.1a22.67,22.67,0,0,1,1.5,6.2,5.62,5.62,0,0,1-11.2,1,10,10,0,0,0-1.2-3.9c-1.8.6-6,2.6-9.4,4.2C85.8,219.2,70.5,226.4,58.7,226.4Zm49.2-17.2Z"/></g></svg>