<svg xmlns="http://www.w3.org/2000/svg" xmlns:xlink="http://www.w3.org/1999/xlink" width="1080" height="1080" viewBox="190 300 700 480" ><defs><path id="a" d="M0 0h1080v1080H0z"/></defs><clipPath id="b"><use xlink:href="#a" overflow="visible"/></clipPath><path clip-path="url(#b)" fill="#413E44" d="M693.671 566.095c0 84.358-68.386 152.744-152.744 152.744-84.359 0-152.745-68.386-152.745-152.744S456.568 413.35 540.927 413.35c84.358 0 152.744 68.387 152.744 152.745"/><path clip-path="url(#b)" fill="#F16F1A" d="M424.587 665.059h237.035c9.968 0 19.336-5.412 23.753-14.349 1.295-2.618 2.157-5.388 2.157-8.118 0-10.923-6.903-22.833-19.646-22.833 0 0 19.646-5.311 19.646-38.232 0-32.923-44.604-49.915-68.499-31.86 0 0-.531-35.046-35.047-42.48-34.515-7.434-48.852 21.771-48.852 21.771s-49.914-43.542-96.643-.531c-46.728 43.011-17.523 78.058-17.523 78.058s-29.205 7.965-29.736 33.453c-.531 25.487 33.355 25.121 33.355 25.121"/><path clip-path="url(#b)" fill="#08A5FD" d="M470.847 665.059h138.772v37.497s-61.148 36.924-138.772 0v-37.497z"/><path clip-path="url(#b)" fill="#F48941" d="M597.721 660.274c5.891-27.83 37.659-169.251 84.273-216.283 9.086-9.167 22.487-12.918 34.829-9.138 7.511 2.299 13.747 7.019 11.597 16.577 0 0-1.594 7.965-12.744 2.655 0 0-17.523-12.745-35.046 16.461-17.25 28.749-58.683 139.63-64.025 192.061-.234 2.302-.781 4.566-1.764 6.662-1.319 2.815-3.53 6.059-6.783 6.354-4.396.399-7.843-.941-9.729-5.888-1.148-3.009-1.275-6.307-.608-9.461M359.372 422.225l3.803-2.763c9.097-6.611 20.884-8.757 31.513-5.085 7.256 2.507 14.392 7.789 18.315 18.362 9.559 25.758 68.214 211.251 74.353 230.676.59 1.868.576 3.91-.236 5.693-.749 1.646-2.441 2.545-5.086 3.75-8.035 3.663-11.682-1.793-13.275-7.8-1.593-6.006-69.562-218.938-69.562-218.938s-6.903-22.515-22.302-13.381c0 0-10.753 10.121-17.523 0 0 0-4.61-7.164 0-10.514"/><path clip-path="url(#b)" fill="#3B384E" d="M518.638 585.517s28.238 24.885 52.753 0c0 0 18.309-6.266 23.584 7.698s0 22.032 0 22.032-47.141 39.824-100.852 0c0 0-7.447-13.964 1.862-24.205 9.308-10.24 22.653-5.525 22.653-5.525"/><path clip-path="url(#b)" fill="#FF90BE" d="M519.958 628.973s2.858-10.002 24.352-10.002 25.546 9.642 25.546 9.642-26.234 9.12-49.898.36"/><path clip-path="url(#b)" d="M544.137 578.82c-1.441 0-2.698-1.012-2.965-2.429-1.143-6.057-6.473-10.653-12.857-10.653-6.384 0-11.716 4.597-12.857 10.653-.267 1.417-1.524 2.429-2.966 2.429-1.879 0-3.347-1.7-3-3.548 1.669-8.87 9.474-15.604 18.823-15.604 9.348 0 17.153 6.733 18.822 15.604.347 1.848-1.12 3.548-3 3.548M582.523 578.82c-1.441 0-2.698-1.012-2.965-2.429-1.142-6.057-6.474-10.653-12.856-10.653-6.385 0-11.715 4.597-12.856 10.653-.268 1.417-1.524 2.429-2.967 2.429-1.879 0-3.347-1.7-3-3.548 1.67-8.87 9.476-15.604 18.823-15.604s17.153 6.733 18.821 15.604c.348 1.848-1.119 3.548-3 3.548"/><path clip-path="url(#b)" fill="#FFC000" d="M741.251 575.782c8.716-8.716 22.849-8.716 31.563 0 8.718 8.717 8.718 22.849 0 31.564"/><path clip-path="url(#b)" fill="#04954F" d="M618.064 392.721c-8.716-8.716-8.716-22.848 0-31.564 8.717-8.717 22.849-8.717 31.564 0"/><path clip-path="url(#b)" fill="#FFC000" d="M369.131 339.733c8.716-8.716 22.848-8.716 31.564 0 8.717 8.716 8.717 22.848 0 31.564"/><path clip-path="url(#b)" fill="#00AAFB" d="M746.679 343.345c0 7.675-6.223 13.897-13.897 13.897-7.676 0-13.897-6.222-13.897-13.897s6.222-13.897 13.897-13.897c7.674 0 13.897 6.222 13.897 13.897"/><path clip-path="url(#b)" fill="#FF8CB2" d="M511.53 418.841c0 7.675-6.222 13.897-13.897 13.897s-13.897-6.222-13.897-13.897 6.222-13.897 13.897-13.897 13.897 6.223 13.897 13.897"/><path clip-path="url(#b)" fill="#00AAFB" d="M394.127 554.677c0 7.675-6.222 13.897-13.897 13.897-7.676 0-13.897-6.223-13.897-13.897 0-7.676 6.221-13.896 13.897-13.896 7.675-.001 13.897 6.22 13.897 13.896"/><path clip-path="url(#b)" fill="#F890AE" d="M297.68 521.233l-16.191-16.19a2.147 2.147 0 010-3.034l16.191-16.19a2.146 2.146 0 013.033 0l16.191 16.19a2.147 2.147 0 010 3.034l-16.191 16.19a2.146 2.146 0 01-3.033 0"/><path clip-path="url(#b)" fill="#FACD1C" d="M576.024 486.928l28.753.986a3.108 3.108 0 013.002 3.106v6.902a3.11 3.11 0 01-.676 1.935l-14.279 17.951a3.109 3.109 0 01-4.937-.094l-14.474-19.684a3.105 3.105 0 01-.604-1.841v-6.155a3.11 3.11 0 013.215-3.106"/><path clip-path="url(#b)" fill="#F8FFFA" d="M556.142 604.386h.812c.491 0 .942.248 1.227.647.829 1.166 2.924 3.497 6.415 3.497 4.654 0 10.161-3.29 11.038-5.276 1.833-4.15.721-18.848.721-18.848l-1.893.323c-.11 0-.215.066-.321.09a29.494 29.494 0 00-2.3.587c-.231.07-.492.155-.663.326-23.236 23.233-49.651 2.125-52.232-.041a1.343 1.343 0 00-.489-.267 19.8 19.8 0 00-1.573-.405v14.042c0 3.237 1.525 6.37 4.259 8.104a8.572 8.572 0 004.664 1.364c5.515 0 9.56-1.313 10.392-4.218.193-.674.763-1.168 1.464-1.168h.03c.509 0 .977.26 1.263.68.983 1.448 3.633 4.706 7.559 4.706 4.326 0 7.452-1.221 8.257-3.133.243-.579.741-1.01 1.37-1.01"/></svg>