<?xml version="1.0" encoding="utf-8"?>
<!-- Generator: Adobe Illustrator 16.0.0, SVG Export Plug-In . SVG Version: 6.00 Build 0)  -->
<!DOCTYPE svg PUBLIC "-//W3C//DTD SVG 1.1//EN" "http://www.w3.org/Graphics/SVG/1.1/DTD/svg11.dtd">
<svg version="1.1" id="Layer_1" xmlns="http://www.w3.org/2000/svg" xmlns:xlink="http://www.w3.org/1999/xlink" x="0px" y="0px"
	 width="1080px" height="1080px" viewBox="0 0 1080 1080" enable-background="new 0 0 1080 1080" xml:space="preserve">
<g>
	<defs>
		<rect id="SVGID_1_" width="1080" height="1080"/>
	</defs>
	<clipPath id="SVGID_2_">
		<use xlink:href="#SVGID_1_"  overflow="visible"/>
	</clipPath>
	<path clip-path="url(#SVGID_2_)" fill="#F87931" d="M342.589,410.755c-13.42,0-24.299,10.879-24.299,24.299
		c0,13.42,10.879,24.299,24.299,24.299"/>
	<path clip-path="url(#SVGID_2_)" fill="#F87931" d="M737.918,410.913c13.42,0,24.299,10.879,24.299,24.299
		c0,13.42-10.879,24.299-24.299,24.299"/>
	<path clip-path="url(#SVGID_2_)" fill="#7D747B" d="M387.2,329.719c0,0-27.527,30.401-33.102,75.724l-7.333-0.396
		c0,0,5.087-48.321,35.397-80.414L387.2,329.719z"/>
	<path clip-path="url(#SVGID_2_)" fill="#7C747D" d="M694.808,338.604c0,0,30.83,35.619,33.479,75.616l7.43,0.551
		c0,0-5.324-49.002-35.636-81.096L694.808,338.604z"/>
	<path clip-path="url(#SVGID_2_)" fill="#828FAB" d="M380.669,319.438c0.114,4.756,1.839,11.88,11.328,10.948
		c2.264-0.223,4.346-1.364,5.792-3.12c9.876-12.004,58.775-65.252,146.296-61.453c87.218,3.785,131.883,57.574,141.026,69.932
		c1.398,1.89,3.494,3.121,5.823,3.449c5.369,0.759,13.82-0.002,10.577-13.474c-4.636-19.256-74.155-79.876-157.427-79.876
		c-81.707,0-122.379,27.808-160.935,67.255C381.501,314.788,380.612,317.077,380.669,319.438"/>
	<path clip-path="url(#SVGID_2_)" fill="#F8A56C" d="M455.067,338.829c0,0-2.149-45.918,12.666-69.088
		c2.03-3.177,5.461-5.215,9.231-5.198c3.113,0.015,6.047,1.043,4.922,5.218c-2.186,8.11,0.421,42.287,2.449,43.446
		c1.996,1.141,15.784-35.341,10.681-80.42c-0.243-2.148,0.166-4.366,1.393-6.146c1.389-2.017,3.828-3.526,7.929-0.886
		c2.105,1.356,3.644,3.433,4.416,5.815c1.973,6.093,6.461,20.161,8.296,27.678c0.221,0.905,1.444,1.042,1.871,0.214l27.857-54.077
		c0.301-0.583,0.639-1.14,1.024-1.671c2.533-3.49,12.11-15.427,13.866,0.878c1.435,13.313,0.84,22.861,0.369,27.311
		c-0.098,0.922,1.017,1.451,1.679,0.801l29.813-29.271c0,0,9.721-7.531,14.853-3.765c1.569,1.151,2.389,3.197,2.769,5.482
		c0.981,5.898-1.569,11.801-6.231,15.545c-11.207,9.001-34.21,34.454-24.424,86.719c0,0,6.082-1.158,11.586,9.848
		c0,0,7.238-19.839,3.402-40.688c-0.379-2.061-0.297-4.186,0.257-6.208c1.441-5.261,5.245-12.801,14.009,0.553
		c12.165,18.537,20.568,50.375,14.05,67.91c-6.52,17.535-83.286,69.091-83.286,69.091L455.067,338.829z"/>
	<path clip-path="url(#SVGID_2_)" fill="#F28B3F" d="M488.101,348.833c0,0-1.738-23.75,6.372-36.495
		c8.11-12.744,10.427-28.095,7.82-33.598s14.193-11.296,15.931,15.64c1.737,26.937-1.243,63.142-1.243,63.142h1.787
		c0,0,5.804-37.074,21.746-52.425c15.941-15.351,19.997-37.653,18.259-47.791c-1.737-10.137,9.269-11.006,11.586-2.896
		c2.317,8.11,12.455,25.488-8.689,69.514c-21.144,44.025-13.902,58.218-13.902,58.218l33.888-19.696l-3.765-5.503
		c0,0,3.186-15.062,2.606-22.592c-0.579-7.531-3.766-21.434-3.766-21.434s1.872-12.054,12.667-0.089
		c10.794,11.964,10.83,32.355,10.83,32.355l-9.015,22.477l-47.127,30.122l-42.662-31.86L488.101,348.833z"/>
	<path clip-path="url(#SVGID_2_)" fill="#F2DDD1" d="M311.926,610.435c0,0-13.161-111.348,27.338-150.923
		c40.499-39.577,186.712-46.186,186.712-46.186l186.307,43.457c0,0,44.104,23.29,37.785,123.976
		c-6.319,100.687-21.509,161.24-21.509,161.24l-79.3,57.226l-178.318-5.18l-95.271-32.749l-57.38-74.527L311.926,610.435z"/>
	<path clip-path="url(#SVGID_2_)" fill="#EED3C2" d="M285.853,756.693c0,0-88.167-9.564-65.219-95.364
		c22.947-85.801,129.542-40.584,129.542-40.584s57.057,18.154,40.752,100.302C374.624,803.192,285.853,756.693,285.853,756.693"/>
	<path clip-path="url(#SVGID_2_)" fill="#EED3C2" d="M787.703,756.693c0,0,88.166-9.564,65.219-95.364
		c-22.947-85.801-129.542-40.584-129.542-40.584s-57.058,18.154-40.753,100.302C698.932,803.192,787.703,756.693,787.703,756.693"/>
	<rect x="286.036" y="723.431" clip-path="url(#SVGID_2_)" fill="#EED3C2" width="506.053" height="145.998"/>
	<path clip-path="url(#SVGID_2_)" fill="#7ACDC8" d="M465.55,580.49l140.121,2.606c0,0,11.08,0.652,13.687,19.552
		c2.607,18.9,9.775,87.332-35.845,108.839c-45.622,21.507-91.241,0-91.241,0s-50.835-11.08-37.801-112.749
		C454.47,598.738,454.47,584.4,465.55,580.49"/>
	<path clip-path="url(#SVGID_2_)" fill="#54C1B1" d="M619.357,602.648c0,0,54.176-24.065,102.271-21.89
		c47.131,2.133,105.843,15.166,148.431,62.661c1.798,2.006,2.872,4.582,2.979,7.275c0.166,4.188-0.844,9.813-7.268,10.552
		c-4.12,0.475-8.137-1.484-10.609-4.813c-8.716-11.732-41.879-47.16-128.616-54.571c-4.054-0.347-8.128-0.438-12.192-0.245
		c-16.124,0.766-58.203,4.756-92.964,25.4C621.389,627.018,620.823,616.412,619.357,602.648"/>
	<path clip-path="url(#SVGID_2_)" fill="#FF7B6C" d="M480.012,580.759l-97.984-96.394c-3.284-3.231-6.025-6.967-8.081-11.09
		c-9.542-19.139-30.854-74.728,18.411-115.116c60.411-49.527,129.531,5.987,148.579,32.11c0,0,94.155-117.013,169.262,0
		c0,0,32.111,64.766-37.009,115.381l-76.432,77.281L480.012,580.759z"/>
	<path clip-path="url(#SVGID_2_)" fill="#4EC4B2" d="M453.887,603.618c0,0-36.454-26.672-95.273-26.672
		c-52.168,0-101.325,22.442-146.783,60.681c-2.18,1.834-3.674,4.353-4.274,7.138c-1.371,6.372-1.417,16.562,13.907,12.73
		c0,0,68.712-58.778,136.606-58.778c45.012,0,85.12,23.946,94.263,29.934L453.887,603.618z"/>
	<path clip-path="url(#SVGID_2_)" fill="#D6A3D3" d="M686.888,881.83L686.888,881.83c-4.928-1.939-7.35-7.506-5.41-12.433
		l16.28-41.365c1.939-4.928,7.506-7.349,12.433-5.41h0.001c4.926,1.938,7.349,7.505,5.41,12.433L699.32,876.42
		C697.381,881.348,691.814,883.77,686.888,881.83"/>
	<path clip-path="url(#SVGID_2_)" fill="#787583" d="M583.513,711.487c0,0,61.92,107.65,105.46,139.217l-8.163,21.77
		c0,0-76.089-71.688-119.229-153.661L583.513,711.487z"/>
	<path clip-path="url(#SVGID_2_)" fill="#D6A3D3" d="M393.815,882.684L393.815,882.684c-4.693,2.452-10.486,0.636-12.938-4.057
		l-20.589-39.399c-2.452-4.693-0.636-10.485,4.057-12.938c4.693-2.453,10.486-0.637,12.938,4.057l20.589,39.399
		C400.324,874.438,398.508,880.231,393.815,882.684"/>
	<path clip-path="url(#SVGID_2_)" fill="#787583" d="M492.271,711.487c0,0-47.122,87.513-104.812,138.672l11.429,22.314
		c0,0,92.98-100.531,116.55-153.881L492.271,711.487z"/>
	<path clip-path="url(#SVGID_2_)" fill="#F9F7F4" d="M493.313,441.786c3.857-2.659,48.297-32.66,83.058-27.962
		c4.793,0.647,8.893,3.775,10.754,8.237c3.723,8.924,5.848,24.554-18.431,33.518c0,0-18.884,6.865-29.327-13.062
		c0,0-6.049,15.347-22.377,14.205c-14.919-1.044-22.568-12.495-23.776-14.462C493.253,442.072,493.274,441.973,493.313,441.786"/>
	<path clip-path="url(#SVGID_2_)" fill="#DDB6D9" d="M485.824,440.434c1.297,0.093,2.499,0.653,3.41,1.581
		c4.702,4.789,23.123,21.44,51.985,21.44c29.102,0,45.089-16.926,48.917-21.556c0.717-0.866,1.673-1.479,2.765-1.749
		c2.938-0.726,8.819-1.327,13.661,3.514c4.899,4.899,4.463,9.6,3.855,11.808c-0.208,0.757-0.581,1.448-1.091,2.046
		c-4.065,4.769-28.331,31.126-68.107,31.126c-39.36,0-63.881-24.412-68.391-29.293c-0.55-0.595-0.947-1.298-1.174-2.076
		c-0.753-2.569-1.877-8.615,2.443-12.936C477.911,440.525,482.966,440.229,485.824,440.434"/>
	<path clip-path="url(#SVGID_2_)" fill="#5C4B5A" d="M485.869,451.231c0.392,0.189,0.747,0.438,1.077,0.722
		c3.587,3.071,26.875,22.072,54.274,22.072c27.811,0,50.034-19.576,52.888-22.2c0.25-0.23,0.512-0.428,0.802-0.605
		c1.566-0.955,6.269-3.41,5.146,2.336c-0.221,1.13-0.804,2.158-1.651,2.938c-5.12,4.71-26.468,22.479-57.185,22.479
		c-30.776,0-52.473-18.347-57.625-23.15c-1.004-0.936-1.69-2.209-1.709-3.582C481.867,450.842,482.586,449.649,485.869,451.231"/>
	<path clip-path="url(#SVGID_2_)" fill="#4E4E63" d="M524.955,424.042c0,0,3.791,12.584-5.05,14.448
		c-7.11,1.499-10.427-0.164-12.007-5.908L524.955,424.042z"/>
	<path clip-path="url(#SVGID_2_)" fill="#4E4E63" d="M554.837,430.395c0,0,0-9.896,8.321-9.896c4.935,0,7.259,3.481,8.334,6.313
		c0.958,2.525,0.99,5.368-0.294,7.744c-1.125,2.08-3.317,4.16-7.591,4.16C555.062,438.716,554.837,430.395,554.837,430.395"/>
	<path clip-path="url(#SVGID_2_)" fill="#7C747D" d="M728.559,466.783L728.559,466.783c-6.026,0-10.911-4.885-10.911-10.911v-40.465
		c0-6.026,4.885-10.911,10.911-10.911s10.911,4.885,10.911,10.911v40.465C739.47,461.898,734.585,466.783,728.559,466.783"/>
	<path clip-path="url(#SVGID_2_)" fill="#7D747B" d="M350.175,466.783L350.175,466.783c-6.026,0-10.911-4.885-10.911-10.911v-40.465
		c0-6.026,4.885-10.911,10.911-10.911s10.911,4.885,10.911,10.911v40.465C361.086,461.898,356.201,466.783,350.175,466.783"/>
	<path clip-path="url(#SVGID_2_)" fill="#FB6D5A" d="M471.224,342.068c0,0-20.201,33.601-22.777,48.132
		c-1.559,8.792-0.867,57.834-0.362,84.433c0.298,15.685,3.198,31.217,8.785,45.876c8.646,22.685,24.873,51.959,52.795,60.883
		l-29.653-0.633l-99.383-97.836c0,0-46.63-62.423,4.141-117.885C384.77,365.038,419.198,326.853,471.224,342.068"/>
	<path clip-path="url(#SVGID_2_)" fill="#EA5C4B" d="M437.318,464.152c0,13.852-11.229,25.081-25.081,25.081
		c-13.851,0-25.08-11.229-25.08-25.081s11.229-25.081,25.08-25.081C426.089,439.071,437.318,450.3,437.318,464.152"/>
	<path clip-path="url(#SVGID_2_)" fill="#EA5C4B" d="M689.294,466.783c0,13.852-11.229,25.081-25.08,25.081
		c-13.852,0-25.081-11.229-25.081-25.081s11.229-25.081,25.081-25.081C678.064,441.702,689.294,452.931,689.294,466.783"/>
	<path clip-path="url(#SVGID_2_)" fill="#F5785F" d="M357.459,576.946v21.975c0,0-63.806,1.103-135.11,57.866
		c-0.632,0.503-1.369,0.855-2.159,1.023c-4.33,0.921-17.878,2.483-11.623-15.984c0.362-1.069,0.969-2.046,1.781-2.831
		C219.146,630.487,284.787,575.436,357.459,576.946"/>
	<path clip-path="url(#SVGID_2_)" fill="#F5785F" d="M722.541,580.802v21.138c0,0,74.039-1.915,135.109,57.866
		c0.577,0.565,1.369,0.855,2.159,1.023c4.329,0.921,17.878,2.483,11.623-15.983c-0.362-1.07-0.969-2.047-1.78-2.832
		C860.853,633.506,807.938,578.786,722.541,580.802"/>
	<path clip-path="url(#SVGID_2_)" fill="#FD7A68" d="M467.634,752.352l18.998,13.707c0,0-35.183,47.607-44.688,57.676l-16.65-13.319
		C425.294,810.415,455.963,772.364,467.634,752.352"/>
	<path clip-path="url(#SVGID_2_)" fill="#FD7A68" d="M609.032,752.847L590.497,766.2c0,0,31.688,45.198,44.911,57.534l15.339-12.271
		C650.747,811.464,620.703,772.858,609.032,752.847"/>
	<path clip-path="url(#SVGID_2_)" fill="#797582" d="M455.963,666.899h161.292c0,0-5.603,54.096-80.646,54.105
		C461.26,721.015,455.963,666.899,455.963,666.899"/>
	<path clip-path="url(#SVGID_2_)" fill="#FFFFFF" d="M650.747,811.464c0,0,30.313,35.124,38.226,39.24l-8.164,21.77
		c0,0-44.587-44.721-45.4-48.738L650.747,811.464z"/>
	<path clip-path="url(#SVGID_2_)" fill="#FFFFFF" d="M425.294,810.415l16.65,13.319l-43.056,48.739l-11.429-22.314
		C387.459,850.159,418.098,819.502,425.294,810.415"/>
</g>
</svg>
