<?xml version="1.0" encoding="utf-8"?>
<!-- Generator: Adobe Illustrator 16.0.0, SVG Export Plug-In . SVG Version: 6.00 Build 0)  -->
<!DOCTYPE svg PUBLIC "-//W3C//DTD SVG 1.1//EN" "http://www.w3.org/Graphics/SVG/1.1/DTD/svg11.dtd">
<svg version="1.1" id="Layer_1" xmlns="http://www.w3.org/2000/svg" xmlns:xlink="http://www.w3.org/1999/xlink" x="0px" y="0px"
 viewBox="0 0 1080 1080" enable-background="new 0 0 1080 1080" xml:space="preserve">
<g>
	<defs>
		<rect id="SVGID_1_" width="1080" height="1080"/>
	</defs>
	<clipPath id="SVGID_2_">
		<use xlink:href="#SVGID_1_"  overflow="visible"/>
	</clipPath>
	<path clip-path="url(#SVGID_2_)" fill="#F1A57F" d="M411.612,201.349l26.529-48.57c2.98-5.455,7.754-9.759,13.564-11.969
		c8.69-3.304,20.123-4.566,20.362,11.518c0.047,3.238-0.672,6.446-1.974,9.412l-7.624,17.37c-0.303,0.691,0.291,1.439,1.033,1.3
		c3.397-0.637,6.451-2.477,8.603-5.183l21.585-27.144c2.885-3.629,6.932-6.168,11.473-7.103c9.237-1.901,23.316-2.334,19.495,14.119
		c-0.327,1.406-0.821,2.776-1.42,4.089l-9.954,21.823c-0.269,0.59,0.269,1.228,0.896,1.061c3.263-0.87,6.192-2.692,8.415-5.233
		l12.057-13.779c5.216-5.961,12.569-9.801,20.482-10.169c6.738-0.313,13.32,1.714,13.466,10.77c0.054,3.44-1.007,6.807-2.788,9.751
		l-15.792,26.092L411.612,201.349z"/>
	<polygon clip-path="url(#SVGID_2_)" fill="#63534E" points="471.76,652.595 800.085,736.188 800.085,749.216 420.737,652.595 	"/>
	<path clip-path="url(#SVGID_2_)" fill="#FACA78" d="M574.451,578.144H392.896c-16.23,0-29.388-13.157-29.388-29.388V270.547
		c0-40.757,33.04-73.798,73.797-73.798h92.737c40.757,0,73.797,33.041,73.797,73.798v278.209
		C603.839,564.986,590.682,578.144,574.451,578.144"/>
	<path clip-path="url(#SVGID_2_)" fill="#72B3E9" d="M573.709,578.144h-180.07c-16.641,0-30.131-13.489-30.131-30.131V394.407
		h240.331v153.606C603.839,564.654,590.35,578.144,573.709,578.144"/>
	<rect x="363.508" y="444.381" clip-path="url(#SVGID_2_)" fill="#4294C8" width="240.331" height="65.914"/>
	<path clip-path="url(#SVGID_2_)" fill="#64544E" d="M800.085,652.595H317.14c-20.559,0-37.225-16.667-37.225-37.226
		s16.666-37.226,37.225-37.226h482.945V652.595z"/>
	<path clip-path="url(#SVGID_2_)" fill="#655250" d="M603.839,941.253h103.187V582.716c0-28.494-23.1-51.593-51.593-51.593h-0.001
		c-28.493,0-51.593,23.099-51.593,51.593V941.253z"/>
	<path clip-path="url(#SVGID_2_)" fill="#4C90C7" d="M545.518,783.006h-39.317V575.949c0-10.856,8.801-19.658,19.658-19.658
		c10.858,0,19.659,8.802,19.659,19.658V783.006z"/>
	<path clip-path="url(#SVGID_2_)" fill="#F9C979" d="M572.581,803.431H506.2v-20.425h66.381c5.64,0,10.212,4.572,10.212,10.212
		C582.793,798.858,578.221,803.431,572.581,803.431"/>
	<path clip-path="url(#SVGID_2_)" fill="#F9C979" d="M716.072,704.709l-65.107,12.938l-3.981-20.033l65.108-12.938
		c5.531-1.1,10.906,2.494,12.006,8.026C725.197,698.233,721.604,703.609,716.072,704.709"/>
	<path clip-path="url(#SVGID_2_)" fill="#4C90C7" d="M425.378,564.299c-0.526,8.147,3.052,16.216,20.569,13.845
		c0,0,68.933-27.98,103.655-21.853c34.723,6.127,63.533,10.998,97.381,141.323l33.906-6.738c0,0-24.567-170.839-131.287-170.839
		c0,0-63.772-0.905-111.29,24.528C430.944,548.509,425.917,555.96,425.378,564.299"/>
	<path clip-path="url(#SVGID_2_)" fill="#333333" d="M518.966,537.398h-68.423c-7.896,0-14.297-6.401-14.297-14.297V386.255
		c0-7.896,6.401-14.297,14.297-14.297h68.423c7.896,0,14.297,6.401,14.297,14.297v136.846
		C533.263,530.997,526.862,537.398,518.966,537.398"/>
	<path clip-path="url(#SVGID_2_)" fill="#FFFFFD" d="M488.059,295.16h69.267c0,0,5.699-46.032-34.634-45.155
		C482.359,250.882,488.059,295.16,488.059,295.16"/>
	<path clip-path="url(#SVGID_2_)" fill="#FFFFFD" d="M420.563,295.16h69.267c0,0,5.699-46.032-34.633-45.155
		C414.864,250.882,420.563,295.16,420.563,295.16"/>
	<path clip-path="url(#SVGID_2_)" fill="#4F432F" d="M534.967,295.16c0,0,8.768-30.688-17.975-30.688
		c-26.742,0-19.289,30.688-19.289,30.688H534.967z"/>
	<path clip-path="url(#SVGID_2_)" fill="#4F432F" d="M477.537,295.16c0,0,8.768-30.688-17.974-30.688
		c-26.742,0-19.29,30.688-19.29,30.688H477.537z"/>
	<path clip-path="url(#SVGID_2_)" fill="#5B4D3E" d="M467.892,323.217c0,0,22.61,22.61,39.158,2.735
		c2-2.402,5.555-4.617,8.236-3.009c2.479,1.487,3.632,3.941,1.259,8.604c-6.14,12.063-23.45,13.151-23.45,13.151
		s-17.75,1.754-31.341-13.151c0,0-4.338-3.738-0.83-7.637C464.431,320.012,467.892,323.217,467.892,323.217"/>
	<path clip-path="url(#SVGID_2_)" fill="#F1842D" d="M447.868,320.706c-24.118,0-43.74-19.621-43.74-43.74
		c0-24.118,19.622-43.739,43.74-43.739s43.739,19.621,43.739,43.739C491.606,301.084,471.986,320.706,447.868,320.706
		 M447.868,242.232c-19.153,0-34.734,15.582-34.734,34.733c0,19.153,15.581,34.734,34.734,34.734
		c19.152,0,34.733-15.581,34.733-34.734C482.601,257.814,467.02,242.232,447.868,242.232"/>
	<path clip-path="url(#SVGID_2_)" fill="#F1842D" d="M526.34,320.706c-24.118,0-43.739-19.621-43.739-43.74
		c0-24.118,19.621-43.739,43.739-43.739c24.119,0,43.741,19.621,43.741,43.739C570.081,301.084,550.459,320.706,526.34,320.706
		 M526.34,242.232c-19.153,0-34.734,15.582-34.734,34.733c0,19.153,15.581,34.734,34.734,34.734s34.735-15.581,34.735-34.734
		C561.075,257.814,545.493,242.232,526.34,242.232"/>
	<path clip-path="url(#SVGID_2_)" fill="#F17F39" d="M410.525,258.49l-5.737,11.834l-38.799-18.81
		c-3.268-1.585-5.991-6.014-4.407-9.281c1.585-3.268,5.68-4.718,8.948-3.134L410.525,258.49z"/>
	<path clip-path="url(#SVGID_2_)" fill="#F17F39" d="M560.871,260.741l5.738,11.835l38.799-18.811
		c3.268-1.584,5.859-6.42,4.274-9.689c-1.584-3.268-5.548-4.31-8.815-2.725L560.871,260.741z"/>
	<polygon clip-path="url(#SVGID_2_)" fill="#63534E" points="757.276,652.595 800.085,667.125 800.085,652.595 	"/>
	<path clip-path="url(#SVGID_2_)" fill="#FACA6D" d="M603.839,394.406c0,0,156.233,66.507,129.006,99.537
		c-26.68,32.365-153.784,7.303-211.104,3.761c-3.721-0.229-7.384-1.113-10.717-2.784c-4.348-2.18-8.814-5.887-7.605-11.689
		c2.232-10.713,13.127-10.266,13.127-10.266s153.92,17.553,184.191,12.183c2.293-0.407,3.273-3.124,1.771-4.904
		c-7.937-9.403-34.96-36.274-98.67-57.271V394.406z"/>
	<path clip-path="url(#SVGID_2_)" fill="#F1CC7B" d="M363.508,401.995c0,0-82.375,100.693-57.825,129.128
		c24.549,28.435,130.562-64.564,130.562-64.564v-31.534c0,0-92.175,77.784-103.781,75.271c-11.605-2.514,15.22-46.257,31.044-68.128
		V401.995z"/>
	<path clip-path="url(#SVGID_2_)" fill="#EDEDED" d="M472.155,420.017h-20.311c-3.296,0-5.968-2.672-5.968-5.968v-22.327
		c0-3.296,2.672-5.968,5.968-5.968h20.311c3.296,0,5.968,2.672,5.968,5.968v22.327C478.123,417.345,475.451,420.017,472.155,420.017
		"/>
	<path clip-path="url(#SVGID_2_)" fill="#333333" d="M460.548,396.956c0,2.783-2.256,5.039-5.039,5.039
		c-2.782,0-5.038-2.256-5.038-5.039c0-2.783,2.256-5.039,5.038-5.039C458.292,391.917,460.548,394.173,460.548,396.956"/>
	<path clip-path="url(#SVGID_2_)" fill="#333333" d="M474.77,402.885c0,2.783-2.256,5.039-5.039,5.039
		c-2.782,0-5.038-2.256-5.038-5.039c0-2.783,2.256-5.039,5.038-5.039C472.514,397.846,474.77,400.103,474.77,402.885"/>
	<path clip-path="url(#SVGID_2_)" fill="#333333" d="M460.548,411.619c0,2.783-2.256,5.039-5.039,5.039
		c-2.782,0-5.038-2.256-5.038-5.039s2.256-5.039,5.038-5.039C458.292,406.58,460.548,408.836,460.548,411.619"/>
	<path clip-path="url(#SVGID_2_)" fill="#F3832B" d="M471.098,243.651c0,0,16.519-12.783,30.367,0l-6.124,7.989l-2.931-6.835
		h-10.652l-2.368,6.835L471.098,243.651z"/>
</g>
</svg>
