<svg id="Layer_1" data-name="Layer 1" xmlns="http://www.w3.org/2000/svg" xmlns:xlink="http://www.w3.org/1999/xlink" viewBox="0 0 304 304"><defs><style>.cls-1{fill:none;}.cls-2{fill:#fcf4ea;}.cls-3{clip-path:url(#clip-path);}.cls-4{fill:#f4e6d4;}.cls-5{fill:#e85d4a;}.cls-6{fill:#fcf5eb;}.cls-7{fill:#faca78;}.cls-8{fill:#f3f1ed;}.cls-9{clip-path:url(#clip-path-2);}.cls-10{fill:#4b5161;}.cls-11{clip-path:url(#clip-path-3);}.cls-12{fill:#828dab;}.cls-13{fill:#ff7c6b;}.cls-14{fill:#514241;}.cls-15{fill:#7bcdc8;}.cls-16{fill:#fff;}.cls-17{fill:#ffdea6;}.cls-18{fill:#f5a571;}</style><clipPath id="clip-path"><circle class="cls-1" cx="152" cy="152" r="152"/></clipPath><clipPath id="clip-path-2"><ellipse class="cls-1" cx="171.59" cy="148.15" rx="15.86" ry="15.75" transform="translate(-0.51 0.59) rotate(-0.2)"/></clipPath><clipPath id="clip-path-3"><ellipse class="cls-1" cx="214.11" cy="148.04" rx="15.86" ry="15.75" transform="translate(-0.51 0.73) rotate(-0.2)"/></clipPath></defs><title>Compassion Info</title><circle class="cls-2" cx="152" cy="152" r="152"/><g class="cls-3"><path class="cls-4" d="M254.81,240H176.26a24.11,24.11,0,0,1-24-26L161,100.35a24.11,24.11,0,0,1,24-22.26h61.06a24.12,24.12,0,0,1,24.05,22.26L278.85,214A24.12,24.12,0,0,1,254.81,240Z"/><path id="Fill-572" class="cls-5" d="M170.14,177.8a8.45,8.45,0,0,0-8.45,8.45V207c0,.95,0,3.31.06,6.07a12.93,12.93,0,0,0,12.93,12.72h31.06a13.83,13.83,0,0,0,13.82-13.71c0-1.66,0-3,0-3.51V186.25a8.45,8.45,0,0,0-8.46-8.45Z"/><polygon class="cls-4" points="368.99 291.18 -337.74 291.18 -308.56 218.13 339.81 218.13 368.99 291.18"/><polygon class="cls-6" points="296.77 275.88 192.83 280.01 159.83 242.93 244.94 241.12 296.77 275.88"/><path class="cls-4" d="M198.64,266l67.8-5.79c3.31-.28,3.29,4.88,0,5.16l-67.8,5.79C195.34,271.48,195.35,266.32,198.64,266Z"/><path class="cls-4" d="M191,251.42l45.69-1.18c3.32-.08,3.32,5.08,0,5.16L191,256.58C187.69,256.66,187.69,251.5,191,251.42Z"/><circle class="cls-4" cx="55.18" cy="84.13" r="68.83"/><path class="cls-6" d="M55.13,89.36a4.85,4.85,0,0,1-4.85-4.85V34.76a4.85,4.85,0,1,1,9.69,0V74.43L84.2,55.05a4.85,4.85,0,0,1,6.06,7.57L58.16,88.3A4.86,4.86,0,0,1,55.13,89.36Z"/><g id="dancer"><path id="Fill-573" class="cls-7" d="M245.34,164V127.62H137.51V164a17.89,17.89,0,0,0,17.89,17.9h72.07A17.87,17.87,0,0,0,245.34,164"/><ellipse class="cls-8" cx="171.59" cy="148.15" rx="15.86" ry="15.75" transform="translate(-0.51 0.59) rotate(-0.2)"/><g class="cls-9"><ellipse class="cls-10" cx="165.39" cy="152.77" rx="9.51" ry="9.45" transform="translate(-0.52 0.57) rotate(-0.2)"/></g><ellipse class="cls-8" cx="214.11" cy="148.04" rx="15.86" ry="15.75" transform="translate(-0.51 0.73) rotate(-0.2)"/><g class="cls-11"><ellipse class="cls-10" cx="207.91" cy="152.66" rx="9.51" ry="9.45" transform="translate(-0.52 0.71) rotate(-0.2)"/></g><path id="Fill-576" class="cls-12" d="M244.86,116.87V100.05a26.56,26.56,0,0,0-7-18l-1.26-1.37A26.57,26.57,0,0,0,217,72.11H163.59A26.58,26.58,0,0,0,137,98.68v18.19Z"/><rect class="cls-13" x="137.01" y="110.38" width="108.12" height="21.55"/><path class="cls-14" d="M190.34,169.41c-1,0-4.41-.08-6.14-1a1.7,1.7,0,0,1-.65-2.3,1.68,1.68,0,0,1,2.29-.64,12.28,12.28,0,0,0,4.5.61,12.05,12.05,0,0,0,4.5-.61,1.68,1.68,0,1,1,1.64,2.93C194.76,169.33,191.35,169.41,190.34,169.41Z"/><path id="Fill-581" class="cls-12" d="M212.46,65.61A21.56,21.56,0,1,1,190.9,44.06a21.55,21.55,0,0,1,21.56,21.55"/><path class="cls-15" d="M153,178.2A37.17,37.17,0,1,1,190.18,141,37.21,37.21,0,0,1,153,178.2Zm0-68A30.82,30.82,0,1,0,183.83,141,30.85,30.85,0,0,0,153,110.21Z"/><path class="cls-15" d="M228.31,178.34a37.17,37.17,0,1,1,37.17-37.17A37.21,37.21,0,0,1,228.31,178.34Zm0-68a30.82,30.82,0,1,0,30.82,30.82A30.85,30.85,0,0,0,228.31,110.35Z"/><path class="cls-15" d="M200.42,123.59a3.16,3.16,0,0,1-2.24-.93,9.58,9.58,0,0,0-13.52,0,3.17,3.17,0,0,1-4.49-4.49,15.93,15.93,0,0,1,22.5,0,3.18,3.18,0,0,1-2.25,5.42Z"/></g><path class="cls-16" d="M177.8,234.94H92c-19.46-29.58-28.27-62-26.43-91.54h85.8C149.54,173,158.35,205.36,177.8,234.94Z"/><polygon class="cls-15" points="133.03 180.56 108.16 189.78 89.95 169.01 114.83 159.79 133.03 180.56"/><polygon class="cls-17" points="146.33 173.75 116.21 173.75 109.66 151.03 139.78 151.03 146.33 173.75"/><path class="cls-16" d="M293.72,196.41c-9,0-16.29,6.12-16.29,18s7.29,17.94,16.29,17.94,16.3-6.12,16.3-17.94S302.72,196.41,293.72,196.41Zm0,28c-5,0-9.12-3.43-9.12-10s4.09-10.05,9.12-10.05,9.12,3.43,9.12,10.05S298.76,224.4,293.72,224.4Z"/><rect class="cls-16" x="244.21" y="185.76" width="48.98" height="55.1" rx="8.07"/><circle class="cls-18" cx="269.55" cy="213.33" r="10.42"/><path class="cls-7" d="M73.25,175.46H62.49a6.16,6.16,0,1,1,0-12.32H73.25a6.16,6.16,0,0,1,0,12.32Z"/><path class="cls-7" d="M203,238.06c-.41,0-.82,0-1.23,0-24-1.12-39.7-25-45.61-34l-1-1.45a42.8,42.8,0,0,0-9.33-.05,6.16,6.16,0,1,1-1.15-12.26c14.45-1.36,17.78,2,18.88,3.07a25.72,25.72,0,0,1,2.85,3.92c5,7.55,18.15,27.6,35.89,28.43a8.94,8.94,0,0,0,7.76-3.07c5.87-6.75,5.48-22.2,4.95-25a6.16,6.16,0,0,1,12.08-2.41c.67,3.34,2.09,24.06-7.65,35.4A21,21,0,0,1,203,238.06Z"/></g></svg>