<?xml version="1.0" encoding="utf-8"?>
<!-- Generator: Adobe Illustrator 16.0.0, SVG Export Plug-In . SVG Version: 6.00 Build 0)  -->
<!DOCTYPE svg PUBLIC "-//W3C//DTD SVG 1.1//EN" "http://www.w3.org/Graphics/SVG/1.1/DTD/svg11.dtd">
<svg version="1.1" id="Layer_1" xmlns="http://www.w3.org/2000/svg" xmlns:xlink="http://www.w3.org/1999/xlink" x="0px" y="0px"
	 width="1080px" height="1080px" viewBox="0 0 1080 1080" enable-background="new 0 0 1080 1080" xml:space="preserve">
<g>
	<defs>
		<rect id="SVGID_1_" width="1080" height="1080"/>
	</defs>
	<clipPath id="SVGID_2_">
		<use xlink:href="#SVGID_1_"  overflow="visible"/>
	</clipPath>
	<path clip-path="url(#SVGID_2_)" fill="#7BBA92" d="M1003.073,524.272c0,248.61-201.539,450.149-450.149,450.149
		c-248.611,0-450.149-201.539-450.149-450.149c0-248.611,201.539-450.149,450.149-450.149
		C801.534,74.124,1003.073,275.662,1003.073,524.272"/>
	<path clip-path="url(#SVGID_2_)" fill="#A1DBB8" d="M917.429,524.272c0,203.454-164.933,368.386-368.387,368.386
		c-203.453,0-368.385-164.932-368.385-368.386s164.932-368.386,368.385-368.386C752.496,155.887,917.429,320.818,917.429,524.272"/>
	<path clip-path="url(#SVGID_2_)" fill="#4D4D4D" d="M390.683,230.981h299.266c0,0,32.863,4.327,32.863,35.603v65.986h9.485
		c1.905,0,3.449-1.685,3.449-3.763v-62.223c0,0-0.349-51.11-46.497-51.11H390.683c0,0-45.1-0.906-45.1,48.56v48.486
		c0,3.676,2.772,6.632,6.141,6.548l9.242-0.229l0.699-54.805C361.665,264.034,360.267,230.981,390.683,230.981"/>
	<path clip-path="url(#SVGID_2_)" fill="#A8B3EC" d="M369.135,264.034h347.223c9.879,0,17.124,9.291,14.715,18.872l-86.538,344.25
		H441.908l-87.479-344.21C351.992,273.354,359.239,264.034,369.135,264.034"/>
	<rect x="441.908" y="627.156" clip-path="url(#SVGID_2_)" fill="#453F4C" width="202.725" height="159.188"/>
	<rect x="481.225" y="752.015" clip-path="url(#SVGID_2_)" fill="#5E5864" width="53.74" height="130.059"/>
	<path clip-path="url(#SVGID_2_)" fill="#5E5864" d="M441.908,666.189c0,0-92.285,38.621-92.285,115.863
		s131.602-26.261,131.602-26.261l-17.079-45.095c0,0-55.443,75.219-73.037,57.624c-17.594-17.594,50.799-57.503,50.799-57.503
		V666.189z"/>
	<rect x="552.195" y="752.015" clip-path="url(#SVGID_2_)" fill="#5E5864" width="53.738" height="130.059"/>
	<path clip-path="url(#SVGID_2_)" fill="#4D4D4D" d="M502.617,387.17c-19.801,0-36.312-14.356-39.67-33.207
		c-0.658-3.69,2.157-7.087,5.905-7.087c2.949,0,5.397,2.154,5.923,5.056c2.39,13.197,13.966,23.238,27.842,23.238
		s25.451-10.041,27.842-23.238c0.525-2.902,2.973-5.056,5.923-5.056c3.748,0,6.563,3.397,5.905,7.087
		C538.929,372.814,522.417,387.17,502.617,387.17"/>
	<path clip-path="url(#SVGID_2_)" fill="#4D4D4D" d="M592.193,387.173c-10.251,0-19.987-3.997-27.469-11.29
		c-6.148-5.994-10.178-13.598-11.7-21.903c-0.672-3.666,2.093-7.065,5.819-7.11l0.025-0.001c2.916-0.035,5.431,2.036,5.954,4.905
		c1.075,5.887,3.927,11.274,8.278,15.516c5.313,5.179,12.25,7.988,19.458,7.881c14.19-0.189,25.64-10.097,27.949-23.343
		c0.499-2.863,2.983-4.952,5.891-4.952c3.747,0,6.567,3.401,5.897,7.087c-3.388,18.603-19.846,32.944-39.577,33.207
		C592.544,387.172,592.368,387.173,592.193,387.173"/>
	<path clip-path="url(#SVGID_2_)" fill="#A8B3EC" d="M499.946,264.034v-56.029c0-5.565,4.511-10.076,10.076-10.076h9.598
		c5.565,0,10.077,4.511,10.077,10.076v28.86c0,1.246,1.011,2.257,2.257,2.257h6.547c1.246,0,2.257-1.011,2.257-2.257v-18.314
		c0-5.513,4.43-10.002,9.942-10.076l8.453-0.112c5.618-0.075,10.21,4.458,10.21,10.075v45.596H499.946z"/>
	<path clip-path="url(#SVGID_2_)" fill="#4D4D4D" d="M359.761,318.839v8.01h6.53c2.871,0,5.395,2.102,6.19,5.154l23.186,89.115
		c1.185,4.555-1.906,9.096-6.19,9.096h-29.89c-5.742,0-10.714-4.408-11.965-10.607l-6.48-32.112
		c-3.342-0.435-5.861-3.569-5.861-7.292v-18.907c0-3.913,2.773-7.138,6.305-7.333l0.591-0.033l12.067-21.36l-0.344-13.731H359.761z"
		/>
	<path clip-path="url(#SVGID_2_)" fill="#4D4D4D" d="M720.238,332.57v8.01h-6.529c-2.871,0-5.396,2.103-6.189,5.155l-23.187,89.115
		c-1.185,4.554,1.905,9.096,6.189,9.096h29.891c5.741,0,10.714-4.409,11.965-10.608l6.479-32.112
		c3.343-0.435,5.861-3.568,5.861-7.291v-18.908c0-3.913-2.773-7.138-6.306-7.333l-0.59-0.033l-12.068-21.36l0.345-13.731H720.238z"
		/>
	<path clip-path="url(#SVGID_2_)" fill="#4D4D4D" d="M562.846,408.133c-36.144,19.255-81.257,9.532-106.259-22.904
		c-2.393-3.103-1.682-7.363,1.611-9.487c23.197,35.946,71.142,46.281,107.087,23.083
		C567.41,402.117,566.304,406.292,562.846,408.133"/>
	<path clip-path="url(#SVGID_2_)" fill="#5E5864" d="M644.633,666.189c0,0,91.491,26.605,94.925,110.714
		c3.433,84.108-133.623-21.111-133.623-21.111l17.079-45.095c0,0,62.045,70.068,73.632,58.482
		c11.586-11.587-52.013-55.105-52.013-55.105V666.189z"/>
	<rect x="441.908" y="648.325" clip-path="url(#SVGID_2_)" fill="#7C7B7C" width="202.725" height="49.346"/>
	<line clip-path="url(#SVGID_2_)" fill="#666666" x1="543.271" y1="627.155" x2="542.383" y2="786.345"/>
	
		<rect x="540.327" y="627.155" transform="matrix(1 0.0055 -0.0055 1 3.8731 -2.958)" clip-path="url(#SVGID_2_)" fill="#666666" width="5" height="159.191"/>
	<path clip-path="url(#SVGID_2_)" fill="#A8B3EC" d="M623.014,710.697c0,0-70.818-39.046-70.818,41.317h40.465
		c0,0,12.45-0.978,13.274,3.776L623.014,710.697z"/>
	<path clip-path="url(#SVGID_2_)" fill="#A8B3EC" d="M464.146,710.697c0,0,70.819-39.046,70.819,41.317H494.5
		c0,0-12.451-0.978-13.275,3.776L464.146,710.697z"/>
	<path clip-path="url(#SVGID_2_)" fill="#4D4D4D" d="M632.201,533.708c27.142,0,73.16-85.546,75.428-89.762h-1.199
		c-0.553,1.027-47.681,88.762-74.229,88.762V533.708z"/>
	<path clip-path="url(#SVGID_2_)" fill="#4D4D4D" d="M544.519,624.674c0.607-0.91,61.104-90.965,87.683-90.965v-1
		c-27.11,0-86.02,87.677-88.515,91.408L544.519,624.674z"/>
	<path clip-path="url(#SVGID_2_)" fill="#4D4D4D" d="M455.172,533.708c-27.142,0-80.707-99.041-82.974-103.257l0.881-0.473
		c0.552,1.027,55.545,102.73,82.093,102.73V533.708z"/>
	<path clip-path="url(#SVGID_2_)" fill="#4D4D4D" d="M542.854,624.674c-0.607-0.91-61.104-90.965-87.683-90.965v-1
		c27.111,0,86.02,87.677,88.515,91.408L542.854,624.674z"/>
	<path clip-path="url(#SVGID_2_)" fill="#4D4D4D" d="M546.46,631.194h-5.547c-2.377,0-4.305-1.927-4.305-4.304v-5.548
		c0-2.378,1.928-4.304,4.305-4.304h5.547c2.377,0,4.305,1.926,4.305,4.304v5.548C550.765,629.268,548.837,631.194,546.46,631.194"/>
</g>
</svg>
