<?xml version="1.0" encoding="utf-8"?>
<!-- Generator: Adobe Illustrator 16.0.0, SVG Export Plug-In . SVG Version: 6.00 Build 0)  -->
<!DOCTYPE svg PUBLIC "-//W3C//DTD SVG 1.1//EN" "http://www.w3.org/Graphics/SVG/1.1/DTD/svg11.dtd">
<svg version="1.1" id="Layer_1" xmlns="http://www.w3.org/2000/svg" xmlns:xlink="http://www.w3.org/1999/xlink" x="0px" y="0px"
	 width="100%" height="100%" viewBox="150 200 800 700" xml:space="preserve">
<g>
	<defs>
		<rect id="SVGID_1_" width="1080" height="1080"/>
	</defs>
	<clipPath id="SVGID_2_">
		<use xlink:href="#SVGID_1_"  overflow="visible"/>
	</clipPath>
	<path clip-path="url(#SVGID_2_)" fill="#F0E3DD" d="M405.338,368.458c0,0,59.576-106.509,199.497-71.862
		c139.921,34.648,112.973,162.331,112.973,162.331s95.602-35.931,145.648,40.422c50.047,76.353-11.549,142.439-11.549,142.439
		s57.104,19.249,64.161,53.255c7.059,34.006-14.115,75.712-98.168,91.11c-84.052,15.399-123.191-16.682-123.191-16.682
		s-41.705,19.248-83.41,14.115c-41.706-5.133-61.045-17.323-77.361-28.231c0,0-58.663,26.948-101.011,26.948
		c-42.346,0-71.861-5.774-106.509-23.099c0,0-77.903,53.859-136.291-13.69c-25.301-29.269-34.399-69.567-21.885-106.176
		c7.821-22.876,24.699-46.474,59.367-61.071c0,0-55.752-40.512-52.122-110.505c2.885-55.604,39.714-104.235,92.516-121.901
		C302.247,334.403,348.634,333.931,405.338,368.458"/>
	<path clip-path="url(#SVGID_2_)" fill="#675555" d="M594.174,511.26c0,0,8.136,10.617,40.923,12.096
		c32.788,1.479,57.193,27.117,70.013,56.7l-107.73,70.013c0,0-0.986-25.392-23.173-38.704
		c-22.188-13.313-73.877-47.435-76.136-66.119s-12.464-27.071-12.464-27.071l-2.614-6.915H594.174z"/>
	<path clip-path="url(#SVGID_2_)" fill="#ED6F22" d="M653.12,476.363c7.635-6.594,12.474-16.338,12.474-27.218
		c0-19.861-16.1-35.961-35.96-35.961c-9.953,0-18.96,4.045-25.471,10.579c-0.154-20.397-16.729-36.884-37.162-36.884
		c-15.58,0-28.913,9.59-34.44,23.186c-10.608-13.139-26.837-21.549-45.039-21.549c-31.96,0-57.868,25.909-57.868,57.869
		c0,7.44,1.419,14.545,3.977,21.079h-1.187c-12.094,0-21.898,9.804-21.898,21.898s9.804,21.898,21.898,21.898h169.761h27.896h17.628
		c9.866,0,17.864-7.998,17.864-17.864C665.594,485.409,660.35,478.65,653.12,476.363"/>
	<path clip-path="url(#SVGID_2_)" fill="#F3C772" d="M565.908,551.022h-56.933c-11.649,0-21.092-9.443-21.092-21.092v-11.755H587
		v11.755C587,541.579,577.557,551.022,565.908,551.022"/>
	<path clip-path="url(#SVGID_2_)" d="M514.382,448.489c-9.816,0-17.974-7.242-19.409-16.664c-0.237-1.555,0.938-2.969,2.512-2.969
		c1.237,0,2.32,0.89,2.499,2.114c1.027,7.026,7.093,12.437,14.398,12.437s13.371-5.411,14.397-12.437
		c0.18-1.224,1.262-2.114,2.5-2.114c1.573,0,2.748,1.414,2.511,2.969C532.355,441.247,524.198,448.489,514.382,448.489"/>
	<path clip-path="url(#SVGID_2_)" d="M556.209,448.489c-9.816,0-17.973-7.242-19.408-16.664c-0.237-1.555,0.938-2.969,2.511-2.969
		c1.238,0,2.321,0.89,2.5,2.114c1.027,7.026,7.092,12.437,14.397,12.437s13.371-5.411,14.398-12.437
		c0.179-1.224,1.262-2.114,2.5-2.114c1.573,0,2.748,1.414,2.511,2.969C574.184,441.247,566.026,448.489,556.209,448.489"/>
	<path clip-path="url(#SVGID_2_)" d="M535.346,458.35c-4.822,0-8.916-3.177-10.299-7.547c-0.511-1.614,0.754-3.252,2.446-3.252
		c1.126,0,2.074,0.756,2.434,1.822c0.762,2.262,2.903,3.895,5.419,3.895s4.657-1.633,5.42-3.895
		c0.359-1.066,1.307-1.822,2.433-1.822c1.693,0,2.958,1.638,2.446,3.252C544.262,455.173,540.168,458.35,535.346,458.35"/>
	<path clip-path="url(#SVGID_2_)" fill="#F3C772" d="M445.114,619.951l-2.214-1.201c-2.261-1.227-3.099-4.054-1.873-6.314
		l47.817-88.132l10.401,5.642l-47.817,88.134C450.201,620.34,447.375,621.178,445.114,619.951"/>
	<path clip-path="url(#SVGID_2_)" fill="#F3C772" d="M632.378,619.951l2.214-1.201c2.261-1.227,3.1-4.054,1.873-6.314
		l-49.711-91.622l-10.4,5.643l49.71,91.623C627.29,620.34,630.117,621.178,632.378,619.951"/>
	<path clip-path="url(#SVGID_2_)" fill="#F3C772" d="M563.226,550.777c0,0,7.301,76.834,20.654,97.436l19.838,62.568
		c0,0,4.578,9.538-4.196,12.59c-8.775,3.052-12.521-3.052-12.521-3.052l-21.052-66.384c0,0-22.041-83.456-19.752-102.913
		L563.226,550.777z"/>
	<path clip-path="url(#SVGID_2_)" fill="#F5C47B" d="M529.22,550.777c0,0-25.432,86.23-27.042,99.292
		c-1.609,13.061-14.295,66.5-14.295,66.5s-1.157,8.553-10.171,7.656c-3.155-0.313-5.403-1.267-6.992-2.373
		c-2.499-1.74-3.569-4.918-2.898-7.889l15.17-67.253l28.111-95.934H529.22z"/>
	<path clip-path="url(#SVGID_2_)" fill="#ED6F22" d="M565.813,654.014l17.879-6.095l20.569,64.292c0,0,3.128,8.181-4.74,11.16
		c-8.097,3.066-12.521-3.052-12.521-3.052L565.813,654.014z"/>
	<path clip-path="url(#SVGID_2_)" fill="#ED6F22" d="M501.993,651.424l-19.001-4.713l-15.019,65.748c0,0-3.075,8.148,6.818,11.284
		c9.951,3.154,13.011-5.812,13.011-5.812L501.993,651.424z"/>
</g>
</svg>
