<?xml version="1.0" encoding="utf-8"?>
<!-- Generator: Adobe Illustrator 16.0.0, SVG Export Plug-In . SVG Version: 6.00 Build 0)  -->
<!DOCTYPE svg PUBLIC "-//W3C//DTD SVG 1.1//EN" "http://www.w3.org/Graphics/SVG/1.1/DTD/svg11.dtd">
<svg version="1.1" id="Layer_1" xmlns="http://www.w3.org/2000/svg" xmlns:xlink="http://www.w3.org/1999/xlink" x="0px" y="0px"
 viewBox="200 340 700 400"  xml:space="preserve">
<g>
	<defs>
		<rect id="SVGID_1_" width="1080" height="1080"/>
	</defs>
	<clipPath id="SVGID_2_">
		<use xlink:href="#SVGID_1_"  overflow="visible"/>
	</clipPath>
	<path clip-path="url(#SVGID_2_)" fill="#FFDEA7" d="M919.503,771.599H161.774c-22.564,0-40.857-18.292-40.857-40.856V322.626
		c0-7.856,6.369-14.225,14.226-14.225h809.713c7.857,0,14.227,6.369,14.227,14.225v409.392
		C959.083,753.878,941.362,771.599,919.503,771.599"/>
	<path clip-path="url(#SVGID_2_)" fill="#9CB0F5" d="M472.338,631.944c13.657,24.531,64.464,107.34,124.142,107.34v32.314
		c0,0-117.272-29.078-151.69-131.872c0,0-3.118-9.581,4.679-14.556c1.949-1.244,4.126-1.865,6.294-2.099
		C462.53,622.344,469.027,625.997,472.338,631.944"/>
	<path clip-path="url(#SVGID_2_)" fill="#8C9AED" d="M288.613,573.302c0,0-39.69,8.238-40.45-38.039
		c-0.101-6.154,2.19-12.194,6.568-16.52c5.953-5.883,17.152-11.371,37.918-8.405c0,0-4.036-33.904,16.145-41.976
		c20.181-8.072,46.012,8.072,54.085,27.446c0,0,103.325-17.431,121.085,78.063l7.265,183.481c0,0,1.614,14.247-15.338,14.247
		H282.155c0,0-14.53-2.139-12.916-18.283C270.854,737.171,288.613,573.302,288.613,573.302"/>
	<path clip-path="url(#SVGID_2_)" fill="#A5B3EC" d="M284.932,607.304l193.007-54.805l5.82,20.644
		c0.136,0.483,0.215,0.98,0.235,1.482l5.433,137.191l-214.744-9.585L284.932,607.304z"/>
	<path clip-path="url(#SVGID_2_)" fill="#FFF8F5" d="M435.514,628.114c0,10.601-8.593,19.194-19.194,19.194
		c-10.6,0-19.194-8.594-19.194-19.194c0-10.6,8.594-19.193,19.194-19.193C426.921,608.921,435.514,617.515,435.514,628.114"/>
	<path clip-path="url(#SVGID_2_)" fill="#FFF8F5" d="M469.988,625.879c0,10.6-8.593,19.193-19.194,19.193
		c-10.6,0-19.194-8.594-19.194-19.193c0-10.601,8.594-19.194,19.194-19.194C461.396,606.685,469.988,615.278,469.988,625.879"/>
	<path clip-path="url(#SVGID_2_)" fill="#4D4D4D" d="M435.575,631.031c0,4.803-3.894,8.695-8.696,8.695
		c-4.802,0-8.696-3.893-8.696-8.695s3.894-8.695,8.696-8.695C431.681,622.336,435.575,626.229,435.575,631.031"/>
	<path clip-path="url(#SVGID_2_)" fill="#4D4D4D" d="M469.925,625.879c0,4.802-3.893,8.695-8.695,8.695
		c-4.803,0-8.696-3.894-8.696-8.695c0-4.803,3.893-8.696,8.696-8.696C466.032,617.183,469.925,621.076,469.925,625.879"/>
	<path clip-path="url(#SVGID_2_)" fill="#98A2EC" d="M383.709,658.862c0,12.967-10.512,23.479-23.479,23.479
		c-12.968,0-23.48-10.513-23.48-23.479c0-12.968,10.512-23.479,23.48-23.479C373.197,635.383,383.709,645.895,383.709,658.862"/>
	<path clip-path="url(#SVGID_2_)" fill="#4D4D4D" d="M398.853,648.928c0,0,6.916,6.025,36.723,6.025c24.484,0,30.549-5.158,31.935-7
		c0.51-0.679,1.093-1.3,1.802-1.768c1.32-0.87,3.263-1.686,4.494-0.092c2.008,2.601-2.149,6.601-2.149,6.601
		s-5.508,8.786-36.143,8.786c-30.637,0-40.428-6.276-40.428-6.276s-3.263-1.255-2.008-5.271
		C394.333,645.916,398.853,648.928,398.853,648.928"/>
	<path clip-path="url(#SVGID_2_)" fill="#A7B2EF" d="M721.722,472.424L721.722,472.424c8.929,9.744,21.55,15.076,34.618,14.625
		c26.202-0.903,47.681,21.003,46.795,47.727c-0.441,13.329,4.786,26.202,14.34,35.308c19.153,18.258,19.153,49.238,0,67.496
		c-9.554,9.106-14.781,21.979-14.34,35.309c0.886,26.724-20.593,48.63-46.795,47.727c-13.068-0.45-25.689,4.882-34.618,14.625
		c-17.901,19.535-48.276,19.535-66.178,0c-8.929-9.743-21.552-15.075-34.619-14.625c-26.202,0.903-47.681-21.003-46.795-47.727
		c0.442-13.329-4.786-26.202-14.339-35.309c-19.153-18.258-19.153-49.238,0-67.496c9.553-9.106,14.781-21.979,14.339-35.308
		c-0.886-26.724,20.593-48.63,46.795-47.727c13.067,0.451,25.69-4.881,34.619-14.625
		C673.445,452.889,703.82,452.889,721.722,472.424"/>
	<rect x="596.479" y="714.3" clip-path="url(#SVGID_2_)" fill="#94A2EC" width="184.308" height="57.299"/>
	<path clip-path="url(#SVGID_2_)" fill="#FFF8F5" d="M636.938,594.229c0,11.259-9.127,20.385-20.385,20.385
		s-20.385-9.126-20.385-20.385c0-11.258,9.127-20.384,20.385-20.384S636.938,582.971,636.938,594.229"/>
	<path clip-path="url(#SVGID_2_)" fill="#FFF8F5" d="M675.589,601.374c0,11.258-9.127,20.385-20.385,20.385
		s-20.385-9.127-20.385-20.385s9.127-20.385,20.385-20.385S675.589,590.116,675.589,601.374"/>
	<path clip-path="url(#SVGID_2_)" fill="#4D4D4D" d="M654.918,596.636c0,5.55-4.499,10.049-10.049,10.049
		s-10.049-4.499-10.049-10.049s4.499-10.049,10.049-10.049S654.918,591.086,654.918,596.636"/>
	<path clip-path="url(#SVGID_2_)" fill="#4D4D4D" d="M616.577,591.325c0,5.55-4.499,10.049-10.049,10.049
		s-10.049-4.499-10.049-10.049s4.499-10.049,10.049-10.049S616.577,585.775,616.577,591.325"/>
	<path clip-path="url(#SVGID_2_)" fill="#4D4D4D" d="M649.67,633.947c-9.879,5.548-22.36,3.825-30.366-4.189
		c-1.307-1.31-1.172-3.471,0.302-4.587c7.383,9.746,21.269,11.663,31.015,4.28C651.736,630.927,651.281,633.042,649.67,633.947"/>
	<path clip-path="url(#SVGID_2_)" fill="#4D4D4D" d="M560.773,740.792H516.61c-4.76,0-8.62-3.859-8.62-8.62v-99.661
		c0-4.761,3.86-8.619,8.62-8.619h44.163c4.761,0,8.62,3.858,8.62,8.619v99.661C569.394,736.933,565.534,740.792,560.773,740.792"/>
	<path clip-path="url(#SVGID_2_)" fill="#9CB0F5" d="M780.786,734.846c0,0-150.16,19.896-213.808-63.187
		c-3.885-5.071-10.245-7.858-16.529-6.712c-1.885,0.344-3.655,1.018-5.023,2.204c-5.476,4.745,0,16.592,0,16.592
		s20.045,54.716,122.688,77.169c64.325,14.071,112.672,6.512,112.672,6.512V734.846z"/>
	<path clip-path="url(#SVGID_2_)" fill="#E6E6E6" d="M530.521,655.384h-10.239c-2.919,0-5.285-2.366-5.285-5.285v-10.239
		c0-2.919,2.366-5.285,5.285-5.285h10.239c2.919,0,5.285,2.366,5.285,5.285v10.239C535.806,653.018,533.44,655.384,530.521,655.384"
		/>
	<path clip-path="url(#SVGID_2_)" fill="#4D4D4D" d="M523.778,640.693c0,1.609-1.305,2.915-2.915,2.915
		c-1.609,0-2.915-1.306-2.915-2.915c0-1.61,1.306-2.915,2.915-2.915C522.473,637.778,523.778,639.083,523.778,640.693"/>
	<path clip-path="url(#SVGID_2_)" fill="#4D4D4D" d="M532.418,644.979c0,1.61-1.305,2.915-2.915,2.915s-2.915-1.305-2.915-2.915
		c0-1.609,1.305-2.914,2.915-2.914S532.418,643.369,532.418,644.979"/>
	<path clip-path="url(#SVGID_2_)" fill="#4D4D4D" d="M523.778,649.438c0,1.61-1.305,2.915-2.915,2.915
		c-1.609,0-2.915-1.305-2.915-2.915c0-1.609,1.306-2.915,2.915-2.915C522.473,646.522,523.778,647.828,523.778,649.438"/>
</g>
</svg>
