<?xml version="1.0" encoding="utf-8"?>
<!-- Generator: Adobe Illustrator 16.0.0, SVG Export Plug-In . SVG Version: 6.00 Build 0)  -->
<!DOCTYPE svg PUBLIC "-//W3C//DTD SVG 1.1//EN" "http://www.w3.org/Graphics/SVG/1.1/DTD/svg11.dtd">
<svg version="1.1" id="Layer_1" xmlns="http://www.w3.org/2000/svg" xmlns:xlink="http://www.w3.org/1999/xlink" x="0px" y="0px" viewBox="270 250 680 550" enable-background="new 0 0 1080 1080" xml:space="preserve">
<g>
	<defs>
		<rect id="SVGID_1_" width="1080" height="1080"/>
	</defs>
	<clipPath id="SVGID_2_">
		<use xlink:href="#SVGID_1_"  overflow="visible" />
	</clipPath>
	<path clip-path="url(#SVGID_2_)" d="M421.876,581.64c-10.5-5.832-18.711-13.875-24.625-24.125
		c-5.918-10.25-8.875-21.875-8.875-34.875s2.957-24.625,8.875-34.875c5.914-10.25,14.125-18.25,24.625-24s22.332-8.625,35.5-8.625
		c13.164,0,24.957,2.875,35.375,8.625c10.414,5.75,18.582,13.75,24.5,24c5.914,10.25,8.875,21.875,8.875,34.875
		s-2.961,24.625-8.875,34.875c-5.918,10.25-14.086,18.293-24.5,24.125c-10.418,5.836-22.211,8.75-35.375,8.75
		C444.208,590.39,432.376,587.476,421.876,581.64 M480.251,563.515c6.75-3.914,12.039-9.414,15.875-16.5
		c3.832-7.082,5.75-15.207,5.75-24.375c0-9.164-1.918-17.289-5.75-24.375c-3.836-7.082-9.125-12.539-15.875-16.375
		c-6.75-3.832-14.375-5.75-22.875-5.75s-16.125,1.918-22.875,5.75c-6.75,3.836-12.086,9.293-16,16.375
		c-3.918,7.086-5.875,15.211-5.875,24.375c0,9.168,1.957,17.293,5.875,24.375c3.914,7.086,9.25,12.586,16,16.5
		c6.75,3.918,14.375,5.875,22.875,5.875S473.501,567.433,480.251,563.515" fill="#1A1A1A"/>
	<path clip-path="url(#SVGID_2_)" d="M656.543,463.641c10.164,5.668,18.125,13.586,23.875,23.75
		c5.75,10.168,8.625,21.918,8.625,35.25c0,13.336-2.875,25.125-8.625,35.375s-13.711,18.211-23.875,23.875
		c-10.168,5.668-21.668,8.5-34.5,8.5c-9.5,0-18.211-1.832-26.125-5.5c-7.918-3.664-14.625-9-20.125-16v68.5h-24v-181h23v21
		c5.332-7.332,12.082-12.875,20.25-16.625c8.164-3.75,17.164-5.625,27-5.625C634.875,455.141,646.375,457.977,656.543,463.641
		 M642.918,563.516c6.75-3.914,12.082-9.414,16-16.5c3.914-7.082,5.875-15.207,5.875-24.375c0-9.164-1.961-17.289-5.875-24.375
		c-3.918-7.082-9.25-12.539-16-16.375c-6.75-3.832-14.375-5.75-22.875-5.75c-8.336,0-15.875,1.961-22.625,5.875
		c-6.75,3.918-12.086,9.375-16,16.375c-3.918,7-5.875,15.086-5.875,24.25c0,9.168,1.914,17.293,5.75,24.375
		c3.832,7.086,9.164,12.586,16,16.5c6.832,3.918,14.414,5.875,22.75,5.875C628.543,569.391,636.168,567.434,642.918,563.516" fill="#1A1A1A"/>
	<path clip-path="url(#SVGID_2_)" d="M834.105,530.641H726.606c1.5,11.668,6.625,21.043,15.375,28.125
		c8.75,7.086,19.625,10.625,32.625,10.625c15.831,0,28.581-5.332,38.249-16l13.25,15.5c-6,7-13.461,12.336-22.375,16
		c-8.918,3.668-18.874,5.5-29.874,5.5c-14,0-26.418-2.875-37.25-8.625c-10.836-5.75-19.211-13.789-25.125-24.125
		c-5.918-10.332-8.875-22-8.875-35c0-12.832,2.875-24.414,8.625-34.75c5.75-10.332,13.664-18.375,23.75-24.125
		c10.082-5.75,21.457-8.625,34.125-8.625c12.664,0,23.956,2.875,33.874,8.625c9.914,5.75,17.664,13.793,23.25,24.125
		c5.582,10.336,8.375,22.168,8.375,35.5C834.605,525.227,834.438,527.641,834.105,530.641 M740.231,485.891
		c-7.75,7-12.293,16.168-13.625,27.5h84.999c-1.336-11.164-5.875-20.289-13.625-27.375c-7.75-7.082-17.374-10.625-28.874-10.625
		S747.981,478.891,740.231,485.891" fill="#1A1A1A"/>
	<path clip-path="url(#SVGID_2_)" d="M329.598,572.247c5.439-2.127,9.392-4.292,11.857-6.493c2.465-2.201,3.7-5.025,3.7-8.475
		c0-1.981-0.418-3.833-1.251-5.559c-0.835-1.723-2.176-3.228-4.026-4.512c-1.849-1.283-4.225-2.293-7.126-3.027
		c-2.901-0.732-6.383-1.101-10.443-1.101c-3.41,0-6.745,0.313-10.009,0.937c-3.264,0.625-6.165,1.761-8.703,3.411
		c-2.539,1.651-4.588,3.871-6.146,6.658c-1.561,2.79-2.339,6.312-2.339,10.566c0,4.476,0.833,8.64,2.502,12.491
		c1.668,3.853,3.879,7.429,6.636,10.73c2.755,3.302,5.929,6.328,9.519,9.08c3.59,2.751,7.306,5.266,11.151,7.539
		c3.843,2.274,7.669,4.274,11.477,5.998c3.807,1.723,7.344,3.209,10.607,4.457l-10.77,23.223
		c-5.657-2.421-11.297-5.026-16.916-7.814c-5.622-2.789-10.989-5.815-16.102-9.079c-5.112-3.266-9.845-6.824-14.196-10.676
		c-4.352-3.853-8.143-8.07-11.369-12.657c-3.228-4.584-5.748-9.592-7.561-15.022c-1.813-5.43-2.72-11.336-2.72-17.72
		c0-6.455,0.925-12.197,2.775-17.224c1.849-5.025,4.405-9.41,7.669-13.152c-1.523-2.273-2.937-4.678-4.242-7.209
		c-1.306-2.531-2.412-5.08-3.319-7.649c-0.907-2.568-1.632-5.118-2.176-7.649c-0.543-2.531-0.815-4.969-0.815-7.318
		c0-3.082,0.506-6.054,1.523-8.915c1.014-2.861,2.666-5.393,4.95-7.594c2.284-2.201,5.239-3.963,8.866-5.283
		c3.626-1.32,8.051-1.982,13.272-1.982h44.386v-14.637h-94.864v-24.763H394.11v24.763h-25.24v38.08h-64.947
		c-0.943,0-1.903,0.13-2.883,0.386c-0.978,0.257-1.886,0.698-2.719,1.32c-0.834,0.625-1.523,1.486-2.067,2.587
		c-0.544,1.1-0.816,2.495-0.816,4.181c0,1.689,0.234,3.248,0.707,4.678c0.471,1.431,1.105,2.771,1.904,4.017
		c7.615-2.568,15.701-3.852,24.26-3.852c6.816,0,13.289,0.789,19.419,2.366c6.128,1.579,11.513,3.981,16.155,7.209
		c4.641,3.23,8.322,7.338,11.042,12.327c2.72,4.99,4.079,10.895,4.079,17.719c0,5.871-0.978,10.914-2.936,15.133
		c-1.959,4.22-4.516,7.869-7.67,10.951c-3.155,3.081-6.729,5.705-10.716,7.869c-3.989,2.165-8.051,4.055-12.185,5.668
		L329.598,572.247z" fill="#1A1A1A"/>
</g>
</svg>
