<?xml version="1.0" encoding="utf-8"?>
<!-- Generator: Adobe Illustrator 16.0.0, SVG Export Plug-In . SVG Version: 6.00 Build 0)  -->
<!DOCTYPE svg PUBLIC "-//W3C//DTD SVG 1.1//EN" "http://www.w3.org/Graphics/SVG/1.1/DTD/svg11.dtd">
<svg version="1.1" id="Layer_1" xmlns="http://www.w3.org/2000/svg" xmlns:xlink="http://www.w3.org/1999/xlink" x="0px" y="0px"
	 width="1080px" height="1080px" viewBox="0 0 1080 1080" enable-background="new 0 0 1080 1080" xml:space="preserve">
<g>
	<defs>
		<rect id="SVGID_1_" width="1080" height="1080"/>
	</defs>
	<clipPath id="SVGID_2_">
		<use xlink:href="#SVGID_1_"  overflow="visible"/>
	</clipPath>
	<g clip-path="url(#SVGID_2_)">
		<defs>
			<rect id="SVGID_3_" width="1080" height="1080"/>
		</defs>
		<clipPath id="SVGID_4_">
			<use xlink:href="#SVGID_3_"  overflow="visible"/>
		</clipPath>
		<path clip-path="url(#SVGID_4_)" fill="#4C4F65" d="M898.99,540c0,198.265-160.727,358.99-358.99,358.99
			c-198.265,0-358.99-160.726-358.99-358.99c0-198.265,160.725-358.99,358.99-358.99C738.264,181.01,898.99,341.735,898.99,540"/>
	</g>
	<g clip-path="url(#SVGID_2_)">
		<defs>
			<path id="SVGID_5_" d="M242.027,540c0,164.567,133.407,297.974,297.973,297.974c164.567,0,297.974-133.406,297.974-297.974
				c0-164.566-133.406-297.973-297.974-297.973C375.434,242.027,242.027,375.434,242.027,540"/>
		</defs>
		<clipPath id="SVGID_6_">
			<use xlink:href="#SVGID_5_"  overflow="visible"/>
		</clipPath>
		<path clip-path="url(#SVGID_6_)" fill="#636A7E" d="M834.895,537.087c0,162.866-132.029,294.894-294.895,294.894
			c-162.865,0-294.894-132.028-294.894-294.894S377.134,242.193,540,242.193C702.865,242.193,834.895,374.222,834.895,537.087"/>
		<path clip-path="url(#SVGID_6_)" fill="#F28C53" d="M427.847,382.711l220.988,4.785c8.742,0.189,17.263,2.744,24.651,7.42
			c17.259,10.922,43.931,36.051,43.931,87.053l13.269,4.329c0,0,5.545-80.608-58.379-107.074c-3.449-1.428-7.153-2.16-10.885-2.274
			l-233.971-7.107c-3.258-0.099-6.394,0.783-9.615,1.283c-11.359,1.76-82.219,31.333-76.402,115.172l12.051-2.383
			c0,0-3.867-61.015,55.499-96.303C414.673,384.231,421.231,382.567,427.847,382.711"/>
		<path clip-path="url(#SVGID_6_)" fill="#FAC279" d="M709.225,480.372c23.678,0,42.872,19.194,42.872,42.872
			c0,23.677-19.194,42.871-42.872,42.871"/>
		<rect x="372.909" y="654.131" clip-path="url(#SVGID_6_)" fill="#F6C577" width="323.616" height="178.05"/>
		<path clip-path="url(#SVGID_6_)" fill="#F28C53" d="M699.885,580.956L699.885,580.956c-5.545,0-10.039-4.494-10.039-10.039
			v-93.501c0-5.544,4.494-10.039,10.039-10.039s10.039,4.495,10.039,10.039v93.501C709.924,576.462,705.43,580.956,699.885,580.956"
			/>
		<path clip-path="url(#SVGID_6_)" fill="#F28C53" d="M372.91,576.989L372.91,576.989c-5.545,0-10.04-4.494-10.04-10.039v-93.501
			c0-5.544,4.495-10.039,10.04-10.039c5.544,0,10.039,4.495,10.039,10.039v93.501C382.949,572.495,378.454,576.989,372.91,576.989"
			/>
		<path clip-path="url(#SVGID_6_)" fill="#588CB9" d="M445.85,415.948l37.48-74.08c2.468-4.367,5.961-8.13,10.324-10.605
			c4.409-2.501,10.322-4.178,17.126-1.845c6.382,2.188,10.176,6.101,12.429,9.851c2.713,4.514,3.114,10.049,1.223,14.965
			l-14.017,36.442c-0.177,0.462,0.424,0.822,0.748,0.448l47.964-55.434c1.802-2.083,3.898-3.879,6.244-5.32
			c5.459-3.352,15.207-7.764,22.175-2.066c0.425,0.347,0.829,0.698,1.216,1.051c6.734,6.161,8.806,15.938,5.743,24.534
			l-10.166,28.53c-0.155,0.437,0.38,0.788,0.718,0.472l35.548-33.177c1.295-1.21,2.691-2.302,4.217-3.204
			c4.375-2.59,12.919-6.116,20.406-0.127c0.441,0.354,0.862,0.714,1.264,1.081c7.646,6.987,8.966,18.578,3.762,27.533
			l-29.558,40.575L445.85,415.948z"/>
		<path clip-path="url(#SVGID_6_)" fill="#73B6E7" d="M610.984,415.026H458.451c-47.243,0-85.542,38.298-85.542,85.542v153.563
			h323.616V500.568C696.525,453.324,658.228,415.026,610.984,415.026"/>
		<path clip-path="url(#SVGID_6_)" fill="#F3C37E" d="M362.87,480.372c-23.677,0-42.872,19.194-42.872,42.872
			c0,23.677,19.195,42.871,42.872,42.871"/>
		<rect x="373.272" y="778.34" clip-path="url(#SVGID_6_)" fill="#F2B464" width="323.253" height="53.642"/>
		<rect x="372.985" y="654.131" clip-path="url(#SVGID_6_)" fill="#F2B464" width="323.465" height="23.049"/>
		<rect x="373.813" y="715.024" clip-path="url(#SVGID_6_)" fill="#F2B464" width="321.809" height="28.565"/>
		<path clip-path="url(#SVGID_6_)" fill="#F7F2EE" d="M655.462,806.835l-54.349,13.831c-12.638,3.216-25.489-4.422-28.705-17.06
			l-24.284-95.425c-3.216-12.638,4.422-25.489,17.06-28.705l54.349-13.83c12.637-3.217,25.489,4.421,28.705,17.059l24.283,95.425
			C675.736,790.768,668.099,803.619,655.462,806.835"/>
		<polygon clip-path="url(#SVGID_6_)" fill="#F47D34" points="560.295,703.864 638.943,684.471 660.851,770.661 574.301,770.661 		
			"/>
		<path clip-path="url(#SVGID_6_)" fill="#F2F3F6" d="M633.377,760.965c0,8.43-6.833,15.263-15.263,15.263
			s-15.263-6.833-15.263-15.263s6.833-15.263,15.263-15.263S633.377,752.535,633.377,760.965"/>
		<rect x="557.063" y="770.661" clip-path="url(#SVGID_6_)" fill="#FFDDAD" width="117.228" height="61.52"/>
		<g opacity="0.46" clip-path="url(#SVGID_6_)">
			<g>
				<defs>
					<rect id="SVGID_7_" x="480.871" y="464.426" width="45.597" height="23.024"/>
				</defs>
				<clipPath id="SVGID_8_">
					<use xlink:href="#SVGID_7_"  overflow="visible"/>
				</clipPath>
				<path clip-path="url(#SVGID_8_)" d="M503.669,487.45c-11.518,0-21.088-8.502-22.764-19.561c-0.275-1.815,1.095-3.463,2.93-3.463
					c1.497,0,2.708,1.125,2.935,2.605c1.258,8.195,8.357,14.493,16.899,14.493s15.641-6.298,16.899-14.493
					c0.227-1.48,1.438-2.605,2.935-2.605c1.835,0,3.205,1.648,2.93,3.463C524.757,478.948,515.188,487.45,503.669,487.45"/>
			</g>
		</g>
		<g opacity="0.46" clip-path="url(#SVGID_6_)">
			<g>
				<defs>
					<rect id="SVGID_9_" x="547.207" y="464.426" width="45.597" height="23.024"/>
				</defs>
				<clipPath id="SVGID_10_">
					<use xlink:href="#SVGID_9_"  overflow="visible"/>
				</clipPath>
				<path clip-path="url(#SVGID_10_)" d="M570.005,487.45c-11.518,0-21.088-8.502-22.763-19.562
					c-0.275-1.814,1.094-3.462,2.929-3.462c1.498,0,2.708,1.125,2.936,2.605c1.258,8.195,8.355,14.493,16.898,14.493
					c8.542,0,15.642-6.298,16.899-14.493c0.228-1.48,1.438-2.605,2.936-2.605c1.835,0,3.204,1.648,2.93,3.462
					C591.094,478.948,581.523,487.45,570.005,487.45"/>
			</g>
		</g>
		<path clip-path="url(#SVGID_6_)" fill="#4992DD" d="M448.832,474.348c4.736,1.861,8.699,5.251,11.653,9.395
			c7.055,9.893,31.092,38.157,75.447,38.157c53.764,0,75.178-35.937,75.178-35.937s10.092-21.317,30.768-9.92
			c20.676,11.397,9.846,31.089,9.846,31.089s-31.506,62.52-112.487,62.52c-72.358,0-112.684-52.47-120.451-63.644
			c-1.066-1.533-1.787-3.282-2.06-5.129c-0.696-4.697-0.739-13.998,7.317-22.054C431.611,471.257,441.201,471.35,448.832,474.348"/>
		<g opacity="0.46" clip-path="url(#SVGID_6_)">
			<g>
				<defs>
					<rect id="SVGID_11_" x="436.7" y="492.038" width="197.688" height="58.615"/>
				</defs>
				<clipPath id="SVGID_12_">
					<use xlink:href="#SVGID_11_"  overflow="visible"/>
				</clipPath>
				<path clip-path="url(#SVGID_12_)" d="M444.524,494.457c0,0,31.598,47.714,90.975,47.714c59.377,0,88.854-38.595,90.762-44.958
					c1.908-6.362,5.514-4.029,5.514-4.029s5.09,1.06,1.061,8.058s-28.416,49.411-97.336,49.411
					c-68.92,0-97.761-50.895-97.761-50.895s-2.336-4.656,0-6.992S444.524,494.457,444.524,494.457"/>
			</g>
		</g>
		<path clip-path="url(#SVGID_6_)" fill="#76B5DE" d="M696.525,729.348c0,0,39.771-5.241,31.288,102.833h-31.288V729.348z"/>
		<path clip-path="url(#SVGID_6_)" fill="#76B5DE" d="M372.91,729.348c0,0-39.772-5.241-31.288,102.833h31.288V729.348z"/>
		<path clip-path="url(#SVGID_6_)" fill="#F28C53" d="M714.85,565.75l-0.001,122.403c0,0.389-0.028,0.769-0.083,1.154
			c-0.593,4.134-4.552,27.538-18.24,27.538c-15.015,0-23.824-7.12-23.824-13.918V646.28c0-4.654-1.31-9.268-4.04-13.036
			c-3.667-5.063-10.359-10.584-22.105-10.584c-13.757,0-20.74,6.772-24.008,11.726c-1.637,2.48-2.552,5.359-2.764,8.323
			l-1.67,23.298l10.743-0.834l1.514-23.692c0,0,1.296-9.11,16.832-9.11c15.535,0,15.859,11.004,15.859,11.004v59.906
			c0,3.56,0.861,7.086,2.664,10.155c3.524,5.998,11.53,13.59,29.378,12.796c29.13-1.294,29.777-36.573,29.777-36.573V563.166
			L714.85,565.75z"/>
		<polygon clip-path="url(#SVGID_6_)" fill="#FFDDAD" points="615.065,760.965 612.238,755.813 618.114,755.94 623.99,756.068 
			620.941,761.094 617.892,766.118 		"/>
		<path clip-path="url(#SVGID_6_)" fill="#539ACF" d="M372.91,540c22.62,0,40.957,18.337,40.957,40.956
			c0,22.62-18.337,40.957-40.957,40.957"/>
		<path clip-path="url(#SVGID_6_)" fill="#539ACF" d="M696.525,544.429c-22.619,0-40.956,18.337-40.956,40.956
			c0,22.62,18.337,40.957,40.956,40.957"/>
	</g>
</g>
</svg>
