<svg id="Layer_1" data-name="Layer 1" xmlns="http://www.w3.org/2000/svg" xmlns:xlink="http://www.w3.org/1999/xlink" viewBox="0 0 304 304"><defs><style>.cls-1{fill:none;}.cls-2{fill:#fcf4ea;}.cls-3{clip-path:url(#clip-path);}.cls-4{fill:#77c79f;}.cls-5{fill:#f5c471;}.cls-6{fill:#67c7c1;}.cls-7{fill:#f7ecdc;}.cls-8{fill:#413d45;}.cls-9{fill:#ff7c6b;}.cls-10{fill:#f1624e;}.cls-11{fill:#fcf5eb;}.cls-12{fill:#a2e0c1;}.cls-13{fill:#fed58c;}.cls-14{fill:#faca78;}.cls-15{fill:#f4e6d4;}.cls-16{fill:#7a7482;}.cls-17{fill:#ffdea6;}.cls-18{clip-path:url(#clip-path-2);}</style><clipPath id="clip-path"><circle class="cls-1" cx="152" cy="152" r="152"/></clipPath><clipPath id="clip-path-2"><circle class="cls-1" cx="501.38" cy="152" r="152"/></clipPath></defs><title>Artboard 1 copy 6</title><circle class="cls-2" cx="152" cy="152" r="152"/><g class="cls-3"><path class="cls-4" d="M261-2c-7.1,11.4-8.2,26.5-2.3,38.6,6.9,14.4,23.1,23.7,39,22.5-1.5,7.8-2.9,15.5-4.4,23.3-1.1,5.7-2.2,11.8-.3,17.3s6.6,9.9,11.7,13a53.21,53.21,0,0,0,32.8,7.5c-.6,14.2,10.6,27.4,24.3,31.3s28.9-.3,40.3-8.8c1.8-1.3,3.5-2.7,5.6-3.3.3-.1.5-.1.8-.2V-2Z"/><path class="cls-2" d="M257.1,292.8c-4.7-7.9-13.7-12.2-22.7-14.3a66.68,66.68,0,0,0-56.6,13.4c-17-13.9-44-13.6-60.6.7a80.45,80.45,0,0,0-44.3-47C52.4,237,22.5,234.6-6.3,258v10.4c-10.6,9.1-23,24.1-30,39.5H261.8c0-.2-.1-.3-.1-.5C260.9,302.4,259.8,297.2,257.1,292.8Z"/><path class="cls-5" d="M149,71.3c-5.6-13.8-13.8-22.1-30.7-21.7-15,.4-27.6,9.7-33.8,23.4-11.6-.8-23.7-.4-34.4,4.3S30.3,91.5,28.9,103.1s6.9,24.3,18.5,25.3c-8,7.9-9.5,20.9-5,31.2s14.2,17.7,24.8,21.1,22.2,3.3,33.2,1.4a8.13,8.13,0,0,1,4.1,0,8,8,0,0,1,3.4,3.4,47.35,47.35,0,0,0,83.1-9.8c8.3,6.3,21.7,1.3,26.1-8.1s1.6-21.1-4.5-29.5-15-14.5-23.7-20.3c8.1-4,9.4-15.4,6.4-24-6.4-17.9-28.2-28.6-46.3-22.7"/><path class="cls-6" d="M179.1,220.2V205.5a7,7,0,0,0-7-7H165a7.09,7.09,0,0,1-6.7-4.9,57.38,57.38,0,0,0-3.8-9.2,7,7,0,0,1,1.3-8.1l5-5a7.06,7.06,0,0,0,0-9.9L150.4,151a7.06,7.06,0,0,0-9.9,0l-5,5a7,7,0,0,1-8.1,1.3,61.43,61.43,0,0,0-9.2-3.8,7,7,0,0,1-4.9-6.7v-7.1a7,7,0,0,0-7-7H91.5a7,7,0,0,0-7,7v7.1a7.09,7.09,0,0,1-4.9,6.7,57.38,57.38,0,0,0-9.2,3.8,7,7,0,0,1-8.1-1.3l-5-5a7.06,7.06,0,0,0-9.9,0L37,161.4a7.06,7.06,0,0,0,0,9.9l5,5a7,7,0,0,1,1.3,8.1,61.43,61.43,0,0,0-3.8,9.2,7,7,0,0,1-6.7,4.9H25.7a7,7,0,0,0-7,7v14.7a7,7,0,0,0,7,7h7.1a7.09,7.09,0,0,1,6.7,4.9,57.38,57.38,0,0,0,3.8,9.2,7,7,0,0,1-1.3,8.1l-5,5a7.06,7.06,0,0,0,0,9.9l10.4,10.4a7.06,7.06,0,0,0,9.9,0l5-5a7,7,0,0,1,8.1-1.3,61.43,61.43,0,0,0,9.2,3.8,7,7,0,0,1,4.9,6.7V286a7,7,0,0,0,7,7h14.7a7,7,0,0,0,7-7v-7.1a7.09,7.09,0,0,1,4.9-6.7,57.38,57.38,0,0,0,9.2-3.8,7,7,0,0,1,8.1,1.3l5,5a7.06,7.06,0,0,0,9.9,0l10.4-10.4a7.06,7.06,0,0,0,0-9.9l-5-5a7,7,0,0,1-1.3-8.1,61.43,61.43,0,0,0,3.8-9.2,7,7,0,0,1,6.7-4.9H172A7,7,0,0,0,179.1,220.2Z"/><path class="cls-7" d="M71.9,224.5A29.29,29.29,0,1,0,83,188.2,29.32,29.32,0,0,0,71.9,224.5Z"/><path class="cls-8" d="M112.5,238.7a28.93,28.93,0,0,0,15.1-21,19.19,19.19,0,0,0-27.4-10.9,19,19,0,0,0-7.6,25.6,18.63,18.63,0,0,0,11.1,9.2A25.35,25.35,0,0,0,112.5,238.7Z"/><path class="cls-9" d="M352.7,125.2V107.7a8.45,8.45,0,0,0-8.4-8.4h-8.5a8.5,8.5,0,0,1-8-5.8,70.93,70.93,0,0,0-4.6-11,8.24,8.24,0,0,1,1.6-9.7l6-6a8.39,8.39,0,0,0,0-11.9L318.4,42.5a8.39,8.39,0,0,0-11.9,0l-6,6a8.39,8.39,0,0,1-9.7,1.6,82.23,82.23,0,0,0-11-4.6,8.28,8.28,0,0,1-5.8-8V29a8.45,8.45,0,0,0-8.4-8.4H248.1a8.45,8.45,0,0,0-8.4,8.4v8.5a8.5,8.5,0,0,1-5.8,8,70.93,70.93,0,0,0-11,4.6,8.24,8.24,0,0,1-9.7-1.6l-6-6a8.39,8.39,0,0,0-11.9,0L183,54.9a8.39,8.39,0,0,0,0,11.9l6,6a8.39,8.39,0,0,1,1.6,9.7,82.23,82.23,0,0,0-4.6,11,8.28,8.28,0,0,1-8,5.8h-8.5a8.45,8.45,0,0,0-8.4,8.4v17.5a8.45,8.45,0,0,0,8.4,8.4H178a8.5,8.5,0,0,1,8,5.8,70.93,70.93,0,0,0,4.6,11,8.24,8.24,0,0,1-1.6,9.7l-6,6a8.39,8.39,0,0,0,0,11.9l12.4,12.4a8.39,8.39,0,0,0,11.9,0l6-6a8.39,8.39,0,0,1,9.7-1.6,82.23,82.23,0,0,0,11,4.6,8.28,8.28,0,0,1,5.8,8v8.5a8.45,8.45,0,0,0,8.4,8.4h17.5a8.45,8.45,0,0,0,8.4-8.4v-8.5a8.5,8.5,0,0,1,5.8-8,70.93,70.93,0,0,0,11-4.6,8.24,8.24,0,0,1,9.7,1.6l6,6a8.39,8.39,0,0,0,11.9,0L330.9,178a8.39,8.39,0,0,0,0-11.9l-6-6a8.39,8.39,0,0,1-1.6-9.7,82.23,82.23,0,0,0,4.6-11,8.28,8.28,0,0,1,8-5.8h8.5A8.37,8.37,0,0,0,352.7,125.2Z"/><path class="cls-10" d="M300.4,120.7a17.24,17.24,0,0,0-23.8,3.6c-.5.6-6,6.7-17.5,7.1a27.49,27.49,0,0,1-20-7.8c-16.8-19.1-42.7,3.3-26,22.7A57.81,57.81,0,0,0,226,156.8a61.62,61.62,0,0,0,32.3,9.1h1.8a62.06,62.06,0,0,0,32.5-10.1,47.1,47.1,0,0,0,11.8-11A17.3,17.3,0,0,0,300.4,120.7Zm-61.3,2.9.2.2Z"/><path class="cls-8" d="M258.3,152.1a48.4,48.4,0,0,1-34.7-14.8,3.48,3.48,0,1,1,5.3-4.5h0a37.72,37.72,0,0,0,8.2,6.5,42,42,0,0,0,43.8-.5,24.82,24.82,0,0,0,6.8-6.1h0c3.1-4.4,8.7-.3,5.6,4-.4.6-10.8,14.7-33.5,15.4Z"/><path class="cls-4" d="M384.4,274.5A50.43,50.43,0,1,0,310.6,308h49A50.75,50.75,0,0,0,384.4,274.5Z"/><path class="cls-11" d="M32.9,17.4A28,28,0,0,0,66.5-2h-54A28.39,28.39,0,0,0,32.9,17.4Z"/><path class="cls-12" d="M46.5-2H32.6A9.66,9.66,0,0,0,37.1.3,10.28,10.28,0,0,0,46.5-2Z"/><circle class="cls-13" cx="84.6" cy="69.2" r="46.2"/><circle class="cls-14" cx="84.6" cy="69.2" r="10.5"/><path class="cls-15" d="M-31.1,158.2a16.66,16.66,0,0,1-14.4-8.1c-5.3-8.6-2.5-18.9,6.7-24.6h0L74.4,55.2a19.62,19.62,0,0,1,14.1-2.9,17.23,17.23,0,0,1,13,21,19,19,0,0,1-8.8,11.4L-20.4,155A20.09,20.09,0,0,1-31.1,158.2ZM85,59.1a12.48,12.48,0,0,0-6.9,2.2L-35,131.5c-5.8,3.6-7.6,9.7-4.4,14.9s9.5,6.2,15.3,2.6L89,78.7a12.4,12.4,0,0,0,5.7-7.2,9.87,9.87,0,0,0-1.3-7.8,9.55,9.55,0,0,0-6.3-4.5A14.77,14.77,0,0,0,85,59.1Z"/><path class="cls-15" d="M69.8,77.8a17,17,0,0,0,14.9,8.6,16.74,16.74,0,0,0,8.4-2.2l.1-.1a16.86,16.86,0,0,0,8-10.3,17.35,17.35,0,0,0-1.6-13L63.9-2H56.3L93.9,64.1A10.4,10.4,0,0,1,90,78.3l-.1.1a10.49,10.49,0,0,1-14.3-3.9L32-2H24.4v.1Z"/><path class="cls-16" d="M2,31A54.63,54.63,0,0,0-9.1-2H-56.5V84.6a49.33,49.33,0,0,0,5.5.3C-21.8,84.9,2,60.8,2,31Z"/><path class="cls-14" d="M235.8,297.9a34.33,34.33,0,0,0,8.3-6.3,4.81,4.81,0,0,1,5.2-1l6,2.6a4.72,4.72,0,0,0,6.3-2.5l4.6-10.5a4.72,4.72,0,0,0-2.5-6.3l-6-2.6a4.93,4.93,0,0,1-2.9-4.5,30.19,30.19,0,0,0-.3-6,43.45,43.45,0,0,0-1-5.2,4.61,4.61,0,0,1,1.8-5l5.2-3.9a4.89,4.89,0,0,0,1-6.7l-6.9-9.2a4.89,4.89,0,0,0-6.7-1l-5.3,3.9a4.51,4.51,0,0,1-5.3.2,38.85,38.85,0,0,0-10.2-4.4,4.83,4.83,0,0,1-3.5-4l-.9-6.9a4.67,4.67,0,0,0-5.3-4.1L205.5,216a4.67,4.67,0,0,0-4.1,5.3l.9,6.9a4.73,4.73,0,0,1-2.4,4.7,38.33,38.33,0,0,0-7.9,5.8,4.73,4.73,0,0,1-5.3.9l-5.9-2.7a4.8,4.8,0,0,0-6.3,2.3l-4.8,10.4a4.8,4.8,0,0,0,2.3,6.3l5.9,2.7a4.72,4.72,0,0,1,2.8,4.6,37.81,37.81,0,0,0,.2,6.7,29.85,29.85,0,0,0,.9,4.5,4.78,4.78,0,0,1-1.8,5l-5.4,3.8a4.88,4.88,0,0,0-1.1,6.7l6.7,9.4a4.88,4.88,0,0,0,6.7,1.1l5.4-3.8a4.86,4.86,0,0,1,5.3-.2,37.91,37.91,0,0,0,10.7,4.7,4.83,4.83,0,0,1,3.5,4l.3,2.7H234l-.6-5.2A4.73,4.73,0,0,1,235.8,297.9Z"/><path class="cls-7" d="M252.9,78.4a19.59,19.59,0,1,0,22.5,11.7A19.63,19.63,0,0,0,252.9,78.4Z"/><path class="cls-8" d="M238.6,103.4a19.65,19.65,0,0,0,12,12.5,12.11,12.11,0,0,0,5-1.8,12.73,12.73,0,1,0-17.9-16.8A21.46,21.46,0,0,0,238.6,103.4Z"/><path class="cls-16" d="M3.7,303.2l5.6,3.2a4.76,4.76,0,0,0,6.5-1.8l5.7-9.9a4.76,4.76,0,0,0-1.8-6.5L14.1,285a4.72,4.72,0,0,1-2.3-4.8,40.32,40.32,0,0,0,.4-6,30.72,30.72,0,0,0-.5-5.3,4.72,4.72,0,0,1,2.3-4.8l5.6-3.3a4.75,4.75,0,0,0,1.7-6.5l-5.8-9.9A4.75,4.75,0,0,0,9,242.7L3.4,246a4.51,4.51,0,0,1-5.3-.4,38,38,0,0,0-9.6-5.5,4.68,4.68,0,0,1-3-4.4l-.1-6.9a4.78,4.78,0,0,0-4.8-4.7l-12,.2a4.78,4.78,0,0,0-4.7,4.8l.1,6.9a4.68,4.68,0,0,1-2.9,4.4,37.64,37.64,0,0,0-8.5,4.9,4.68,4.68,0,0,1-5.3.3l-3.7-2.2v61.2l3-1.7a4.68,4.68,0,0,1,5.3.4,41,41,0,0,0,7.1,4.6H-8.5a35.18,35.18,0,0,0,6.9-4.4A4.67,4.67,0,0,1,3.7,303.2Z"/><circle class="cls-16" cx="164.7" cy="21.9" r="14.8"/><path class="cls-8" d="M175.1,11.4a14.59,14.59,0,0,0-3.8-2.7L151.4,28.6a16.47,16.47,0,0,0,2.7,3.8,14.59,14.59,0,0,0,3.8,2.7l19.9-19.9A11,11,0,0,0,175.1,11.4Z"/><circle class="cls-16" cx="-9.9" cy="194.5" r="14.8"/><path class="cls-8" d="M-22.8,187.3a14.59,14.59,0,0,0-1.6,4.4L.1,205.4A15.34,15.34,0,0,0,3,201.7a14.59,14.59,0,0,0,1.6-4.4l-24.5-13.7A17.57,17.57,0,0,0-22.8,187.3Z"/><circle class="cls-12" cx="47.4" cy="292.1" r="6.3"/><circle class="cls-17" cx="127.4" cy="120" r="7.6"/><circle class="cls-12" cx="302.3" cy="22.6" r="4"/><path class="cls-7" d="M230.5,253.7a15.95,15.95,0,1,0,1.8,20.6A16.21,16.21,0,0,0,230.5,253.7Z"/><path class="cls-8" d="M207,254.8a16,16,0,0,0-3.4,13.7,10.18,10.18,0,0,0,3.4,2.7,10.46,10.46,0,0,0,12.6-2.8,10.31,10.31,0,0,0-1.4-14.5,10.57,10.57,0,0,0-7.5-2.4A19.06,19.06,0,0,0,207,254.8Z"/></g></svg>